<svg width="90" height="117" viewBox="0 0 90 117" xmlns="http://www.w3.org/2000/svg"><title>Page 1</title><g fill="none" fill-rule="evenodd"><path d="M44.91 116.382c-14.025 0-25.392-11.413-25.392-25.49a3.913 3.913 0 0 1 3.905-3.923h42.975a3.912 3.912 0 0 1 3.905 3.92c0 14.08-11.368 25.49-25.393 25.49" fill="#FFF"/><path d="M38.925 57.496V1.824m10.69 65.598c-5.904 0-10.69-4.804-10.69-10.73M1.82 16.777c0-4.322 3.492-7.827 7.798-7.827s7.797 3.505 7.797 7.827m54.99 0c0-4.322 3.49-7.827 7.798-7.827C84.51 8.95 88 12.455 88 16.777" stroke="#FFF" stroke-width="3" stroke-linecap="round" stroke-linejoin="round"/></g></svg>