<?xml version="1.0" encoding="utf-8"?>
<!-- Generator: Adobe Illustrator 19.0.0, SVG Export Plug-In . SVG Version: 6.00 Build 0)  -->
<svg version="1.1" id="Layer_1" xmlns="http://www.w3.org/2000/svg" xmlns:xlink="http://www.w3.org/1999/xlink" x="0px" y="0px"
	 viewBox="-149 299.5 520 661" style="enable-background:new -149 299.5 520 661;" xml:space="preserve">
<style type="text/css">
	.st0{fill:#9B9B9B;}
</style>
<g>
	<g>
		<path class="st0" d="M250.2,577.7l-0.7-0.3c-0.2-0.1-18.5-7.4-46-13.7c-0.5-0.1-0.9-0.7-0.8-1.2c0.1-0.6,0.7-0.9,1.2-0.8
			c24.8,5.6,42.2,12.1,45.7,13.5c12.1-13.4,20.7-28.4,25.6-44.5c4-13.1,5.6-26.9,4.8-41.2c-1.4-24.3-9.6-41.6-9.7-41.8L240.1,378v0
			c0-0.1-2.6-7.2-7.5-14.9c-4.5-7.1-11.9-16.1-21.8-19c-8.7-2.6-18-0.2-27.7,7.1c-0.2,0.1-17.9,13.6-42.6,19.8
			c-14.6,3.7-28.6,4.2-41.8,1.5c-16.6-3.3-31.8-11.6-45.3-24.7c-0.1-0.1-8.7-8.3-21-6c-6.2,1.1-12.3,4.7-18.2,10.6
			c-7.3,7.3-14.3,18.1-20.8,32.3l-28.4,70.5c-0.1,0.1-6.4,13.5-7.2,34.8c-0.5,12.5,0.9,25.2,4.3,37.9c4.1,15.6,11.2,31.1,20.9,46
			c8-2.1,82.5-21.4,144.4-21.4c0.4,0,0.9,0,1.3,0c7.9,0,16.1,0.4,24.3,1.1c0.6,0,1,0.5,0.9,1.1c0,0.6-0.5,1-1.1,0.9
			c-8.2-0.7-16.3-1-24.1-1.1c-65.2-0.3-145.2,21.3-146,21.5l-0.7,0.2l-0.4-0.6c-10.1-15.4-17.4-31.3-21.6-47.3
			c-3.4-12.8-4.9-25.8-4.3-38.5c0.9-21.4,7-34.5,7.4-35.4L-8.6,384c12.2-26.5,25.9-41.3,40.6-44.1c13.4-2.5,22.4,6.2,22.8,6.5
			c13.2,12.8,28.1,20.9,44.2,24.2c12.9,2.6,26.7,2.1,40.9-1.5c24.3-6.2,41.8-19.4,42-19.5c10.3-7.7,20.2-10.3,29.6-7.5
			c19.9,6,30.1,33.5,30.6,35.1l30.3,69.6c0.1,0.1,8.4,17.7,9.8,42.4c0.9,14.5-0.8,28.6-4.9,41.9c-5.1,16.6-14,32.1-26.6,45.9
			L250.2,577.7z"/>
	</g>
	<g>
		<path class="st0" d="M-57.4,874.2c-0.4,0-0.8-0.2-1-0.7c-0.2-0.5,0.1-1.1,0.6-1.3c0.2-0.1,0.9-0.4,1.6-0.9
			c33.4-18.8,74-32.8,114.2-39.7c35.6-6.1,71.5-6.7,106.6-1.9c43.1,5.9,85.5,20.1,125.8,42.2c0.5,0.3,0.7,0.9,0.4,1.4
			c-0.3,0.5-0.9,0.7-1.4,0.4c-162.3-88.8-304.9-22.9-344.7-0.6c-1.3,0.7-1.7,0.9-2,1C-57.1,874.2-57.2,874.2-57.4,874.2z"/>
	</g>
	<g>
		<path class="st0" d="M119.1,885c-39.8,0-71-9.5-71-21.6c0-12.1,31.2-21.6,71-21.6s71,9.5,71,21.6C190.1,875.6,159,885,119.1,885z
			 M119.1,844c-37.4,0-68.9,8.9-68.9,19.5c0,10.6,31.6,19.5,68.9,19.5s68.9-8.9,68.9-19.5C188.1,852.9,156.5,844,119.1,844z"/>
	</g>
	<g>
		<path class="st0" d="M48.5,718.3c-6,0-11.7-3.1-14.8-8.7c-2.2-4-2.7-8.5-1.4-12.8c1.3-4.3,4.1-7.9,8-10.1l158.2-87.3
			c8.2-4.5,18.4-1.5,22.9,6.6c2.2,4,2.7,8.5,1.4,12.8s-4.1,7.9-8,10.1L56.7,716.2C54.1,717.6,51.3,718.3,48.5,718.3z M206.7,599.4
			c-2.4,0-4.9,0.6-7.1,1.8L41.4,688.4c-3.5,1.9-6,5.1-7.1,8.8c-1.1,3.8-0.7,7.8,1.3,11.3c1.9,3.5,5.1,6,8.8,7.1
			c3.8,1.1,7.8,0.7,11.3-1.3l158.2-87.3c3.5-1.9,6-5.1,7.1-8.8c1.1-3.8,0.7-7.8-1.3-11.3C217,602.1,211.9,599.4,206.7,599.4z"/>
	</g>
	<g>
		<path class="st0" d="M71.2,775c-6,0-11.7-3.1-14.8-8.7c-2.2-4-2.7-8.5-1.4-12.8s4.1-7.9,8-10.1L168.9,685c4-2.2,8.5-2.7,12.8-1.4
			c4.3,1.3,7.9,4.1,10.1,8c4.5,8.2,1.5,18.4-6.6,22.9l0,0L79.4,772.9C76.8,774.3,74,775,71.2,775z M177.1,684.9
			c-2.5,0-4.9,0.6-7.1,1.8L64.1,745.2c-3.5,1.9-6,5.1-7.1,8.8c-1.1,3.8-0.7,7.8,1.3,11.3c4,7.1,13,9.7,20.1,5.8l105.9-58.4
			c7.1-4,9.7-13,5.8-20.1c-1.9-3.5-5.1-6-8.8-7.1C179.8,685.1,178.4,684.9,177.1,684.9z M184.7,713.6L184.7,713.6L184.7,713.6z"/>
	</g>
	<g>
		<path class="st0" d="M215.6,602c-0.2,0-0.4,0-0.6-0.2c-0.4-0.3-0.6-0.9-0.3-1.4c12.4-18.6,24.3-27,35.4-25
			c0.6,0.1,0.9,0.6,0.8,1.2c-0.1,0.6-0.6,0.9-1.2,0.8c-10.2-1.8-21.4,6.3-33.3,24.1C216.2,601.9,215.9,602,215.6,602z"/>
	</g>
	<g>
		<path class="st0" d="M178.1,684.7c-0.1,0-0.2,0-0.3,0c-0.5-0.2-0.8-0.8-0.6-1.3c5.9-17,11.9-32.3,17.7-45.5
			c0.2-0.5,0.8-0.7,1.3-0.5c0.5,0.2,0.7,0.8,0.5,1.3c-5.9,13.2-11.8,28.5-17.7,45.4C178.9,684.4,178.5,684.7,178.1,684.7z"/>
	</g>
	<g>
		<path class="st0" d="M112.3,785.6c-14.4,0-25.6-4.5-33.3-13.4c-0.4-0.4-0.3-1.1,0.1-1.4c0.4-0.4,1.1-0.3,1.4,0.1
			c7.5,8.6,18.5,12.9,32.7,12.7c15.1-0.2,26.8-5.2,34.8-14.7c6-7.1,7.5-14.3,7.5-14.4c0-0.2,3.1-12.5,8.4-30.4
			c0.2-0.5,0.7-0.9,1.3-0.7c0.5,0.2,0.9,0.7,0.7,1.3c-5.2,17.5-8.2,29.7-8.4,30.3c-0.1,0.5-1.8,7.8-7.9,15.1
			c-5.8,6.9-16.8,15.2-36.4,15.5C113,785.6,112.6,785.6,112.3,785.6z"/>
	</g>
	<g>
		<path class="st0" d="M69.1,742.3c-0.5,0-0.9-0.3-1-0.8c-1.9-10.2-4-20.2-6.2-29.6c-0.1-0.5,0.2-1.1,0.8-1.2
			c0.5-0.1,1.1,0.2,1.2,0.8c2.2,9.4,4.3,19.4,6.2,29.7c0.1,0.6-0.2,1.1-0.8,1.2C69.2,742.3,69.2,742.3,69.1,742.3z"/>
	</g>
	<g>
		<path class="st0" d="M54.4,681.1c-0.4,0-0.9-0.3-1-0.7c-3.1-10.4-6.5-20.3-10.1-29.3c-0.2-0.5,0-1.1,0.6-1.3
			c0.5-0.2,1.1,0,1.3,0.6c3.5,9.1,7,19,10.1,29.5c0.2,0.5-0.2,1.1-0.7,1.3C54.7,681.1,54.6,681.1,54.4,681.1z"/>
	</g>
	<g>
		<path class="st0" d="M31.1,622.9c-0.4,0-0.7-0.2-0.9-0.5c-24.5-44.9-47.6-46-47.8-46c-0.6,0-1-0.5-1-1.1c0-0.6,0.5-1,1.1-1
			c0.2,0,6.3,0.2,15.5,6.2c15.1,9.9,26.9,27.7,34.1,40.9c0.3,0.5,0.1,1.1-0.4,1.4C31.4,622.8,31.2,622.9,31.1,622.9z"/>
	</g>
	<g>
		<path class="st0" d="M37.2,653.5c-1.6,0-3.1-0.2-4.7-0.7c-4.3-1.3-7.9-4.1-10.1-8c-4.5-8.2-1.5-18.4,6.6-22.9l158.2-87.3
			c8.2-4.5,18.4-1.5,22.9,6.6c4.5,8.2,1.5,18.4-6.6,22.9L45.4,651.4C42.8,652.7,40,653.5,37.2,653.5z M195.4,534.5
			c-2.5,0-4.9,0.6-7.1,1.8L30,623.6c-7.1,4-9.7,13-5.8,20.1c1.9,3.5,5.1,6,8.8,7.1s7.8,0.7,11.3-1.3l158.2-87.3l0.5,0.9l-0.5-0.9
			c7.1-4,9.7-13,5.8-20.1c-1.9-3.5-5.1-6-8.8-7.1C198.1,534.7,196.7,534.5,195.4,534.5z"/>
	</g>
</g>
</svg>
