<svg id="Layer_1" xmlns="http://www.w3.org/2000/svg" viewBox="714.3 167.7 469.2 164.5"><style>.st0{fill:#9b9b9b}</style><path class="st0" d="M765.9 175.6h-3.1c-.6 0-1-.4-1-1v-.4h-.4c-.6 0-1-.4-1-1v-3.1c0-.6.4-1 1-1h.4v-.4c0-.6.4-1 1-1h3.1c.6 0 1 .4 1 1v.4h.4c.6 0 1 .4 1 1v3.1c0 .6-.4 1-1 1h-.4v.4c0 .5-.5 1-1 1zm-2.1-2h1.1v-.4c0-.6.4-1 1-1h.4v-1.1h-.4c-.6 0-1-.4-1-1v-.4h-1.1v.4c0 .6-.4 1-1 1h-.4v1.1h.4c.6 0 1 .4 1 1v.4zm-30.3 106.5c-.6 0-1-.4-1-1v-7.2c0-.3.2-.7.5-.8l3.3-2.1-2.7-2.3c-.2-.2-.4-.5-.4-.8l.2-3.5-1.6-.6c-.4-.2-.6-.5-.6-.9v-17.7c0-.4.2-.7.6-.9l1.8-.9.3-2.2c0-.3.3-.6.6-.8l2.6-1.3-2.1-1.3c-.4-.3-.6-.8-.4-1.2.8-1.9-.2-2.7-.4-2.8-.4-.2-.5-.7-.4-1.1.1-.4.5-.7.9-.7 1.3 0 2.1-.3 2.4-.8.4-.6 0-1.6-.2-1.8-.2-.3-.2-.7 0-1 1.5-2.5 1.9-4.4 1.2-5.5-1-1.6-4.1-1.4-4.1-1.4-.4 0-.8-.2-1-.5s-.2-.8.1-1.1c6.3-8.2 1.3-13.1 1.1-13.3-.4-.3-.4-.9-.1-1.3l.1-.2c.2-.3.6-.5 1-.4.7.1 1.3-.4 1.3-1.1 0-.3-.1-.6-.3-.7-.3-.3-.3-.7-.1-1.1.1-.3.3-.5.4-.8.1-.2.3-.4.6-.5.3-.1.5-.1.8.1.8.4 1.6-.2 1.6-1 0-.6-.4-1-1-1.1-.5-.1-.9-.5-.9-1.1v-1c0-.4.1-.7.4-.9.3-.2.5-.5.5-.9 0-.6-.5-1.1-1.1-1.1-.3 0-.5.1-.7.2-.3.2-.7.3-1 .1-.2-.1-.4-.2-.6-.2-.4-.1-.7-.5-.7-.9v-.1c0-.6-.5-1.1-1.1-1.1-.5 0-.9.3-1.1.8-.1.4-.5.7-.9.7-.8 0-1.4.1-1.4.1-.3 0-.7-.1-.9-.3-.2-.2-.3-.6-.2-.9.6-2.6.3-3.6 0-4.1-.2-.3-.4-.4-.8-.5h-.6c-.4.1-.6.2-.8.5-.3.4-.6 1.5 0 4.1.1.3 0 .7-.2.9-.2.2-.5.4-.9.3 0 0-.5-.1-1.3-.1-.4 0-.8-.3-.9-.7-.1-.5-.6-.8-1.1-.8-.6 0-1.1.5-1.1 1.1 0 .4-.3.8-.7.9-.2.1-.4.2-.6.2-.3.2-.7.1-1-.1-.2-.1-.4-.2-.6-.2-.6 0-1.1.5-1.1 1.1 0 .3.2.6.4.9.3.2.4.6.4.9v1.1c0 .5-.3 1-.9 1.1-.5.1-.9.5-.9 1.1 0 .8.8 1.4 1.6 1 .2-.1.5-.1.8 0s.5.3.6.5c.1.3.3.5.4.8.2.3.1.8-.1 1.1-.1.1-.2.4-.2.7 0 .7.6 1.2 1.3 1.1.4-.1.8.1 1 .4l.1.1c.3.4.3 1-.1 1.4-.2.2-5.2 5.2 1.1 13.3.2.3.3.7.1 1.1-.2.3-.6.5-1 .5-.9-.1-3.3.1-4.1 1.4-.7 1.1-.3 3 1.2 5.5.2.3.2.7 0 1-.1.3-.5 1.3-.2 1.8s1.1.8 2.4.8c.4 0 .8.3.9.7.1.4-.1.9-.4 1.1-.2.1-1.2.9-.4 2.8.2.5 0 1-.4 1.2l-2.1 1.3 2.6 1.3c.3.1.5.4.6.8l.3 2.2 1.8.9c.3.2.6.5.6.9V261c0 .4-.2.8-.6.9l-1.6.6.2 3.5c0 .3-.1.6-.4.8l-2.7 2.3 3.3 2.1c.3.2.5.5.5.8v5.6c0 .6-.4 1-1 1s-1-.4-1-1v-5l-4-2.6c-.3-.2-.4-.5-.5-.8 0-.3.1-.6.4-.8l3.3-2.8-.2-3.7c0-.4.2-.8.6-1l1.7-.7v-16.4l-1.7-.8c-.3-.1-.5-.4-.5-.8l-.3-2.2-3.8-1.8c-.3-.2-.5-.5-.6-.8 0-.4.2-.7.5-.9l2.9-1.9c-.3-1.2-.2-2.1.1-2.9-1-.3-1.8-.8-2.2-1.6-.7-1.2-.4-2.5-.1-3.3-1.7-3-2-5.4-.9-7.2.9-1.5 2.6-2 4-2.3-2.8-4.3-2.8-7.8-2.2-10.1.3-1.3.9-2.4 1.4-3.1-1.1-.5-1.8-1.6-1.8-2.8 0-.3 0-.6.1-.9-1.7 0-3.1-1.4-3.1-3.1 0-1.2.7-2.3 1.8-2.8v-.2c-.5-.6-.8-1.3-.8-2 0-1.7 1.4-3.1 3.1-3.1.4 0 .7.1 1 .2.4-1.3 1.6-2.2 3-2.2.8 0 1.5.3 2.1.8-.2-1.5.1-2.7.6-3.6.5-.7 1.1-1.2 2-1.4h.1s.3 0 .7-.1c.4 0 .6 0 .7.1h.1c.8.2 1.5.7 2 1.4.6.9.8 2.1.6 3.7.6-.6 1.3-.9 2.2-.9 1.4 0 2.6.9 3 2.2.3-.1.7-.2 1-.2 1.7 0 3.1 1.4 3.1 3.1 0 .8-.3 1.6-.9 2.1 1.1.5 1.9 1.6 1.9 2.8 0 1.7-1.4 3.2-3.1 3.1.1.3.1.6.1.9 0 1.3-.8 2.4-1.9 2.9.5.7 1 1.8 1.3 3.1.6 2.3.6 5.8-2.2 10.1 1.4.2 3.1.8 4 2.3 1.1 1.7.8 4.1-.9 7.2.3.7.6 2.1-.1 3.3-.4.8-1.2 1.3-2.2 1.6.3.8.5 1.7.1 2.9l2.9 1.9c.3.2.5.5.5.9s-.2.7-.6.8l-3.8 1.8-.3 2.2c0 .3-.2.6-.5.8l-1.7.8v16.4l1.7.7c.4.2.7.6.6 1l-.2 3.7 3.3 2.8c.2.2.4.5.4.8s-.2.6-.5.8l-4 2.6v6.7c0 .3-.4.8-1 .8zm-7.7-81.8c-3.3-.4-4.9-1.3-5.2-2.6-.3-1.3.9-2.3 1-2.4 0 0 .1-.1.2-.1.7-.3 1.4-.3 2-.1 1.8.7 2.9 3.5 3 3.8.1.3.1.7-.2 1-.2.3-.5.4-.8.4zm-3.3-3s.3.3 1.5.7c-.3-.4-.6-.8-1-.9-.1 0-.2-.1-.3 0-.1 0-.2.1-.2.2zm7.8 3c-.3 0-.6-.1-.8-.4-.2-.3-.3-.6-.2-1 .1-.3 1.2-3.1 3-3.8.7-.3 1.4-.2 2 .1.1 0 .1.1.2.1.1.1 1.4 1.1 1 2.4-.3 1.3-2 2.1-5.1 2.6h-.1zm3-3.3h-.2c-.3.1-.7.5-1 .9 1.3-.4 1.5-.7 1.5-.7l-.3-.2z"/><path class="st0" d="M728.1 219.7c-.6 0-1-.4-1-1v-14.6c0-.6.4-1 1-1s1 .4 1 1v14.6c0 .6-.5 1-1 1zm-3.6-2.2c-.3 0-.7-.2-.9-.5-4.9-7.9 0-13.9.1-13.9.4-.4 1-.5 1.4-.1s.5 1 .1 1.4c-.2.2-4 5 .1 11.6.3.5.1 1.1-.3 1.4-.2 0-.3.1-.5.1zm7.2 0c-.2 0-.4 0-.5-.1-.5-.3-.6-.9-.3-1.4 4.1-6.6.2-11.4.1-11.6-.4-.4-.3-1.1.1-1.4.4-.4 1.1-.3 1.4.1 0 .1 5 6 .1 13.9-.3.3-.6.5-.9.5zm42.9-21.1c-.5 0-.9-.3-1-.8l-1-5.5c0-.3 0-.5.2-.7 3.3-4.9 4.4-8.4 3.2-10.3-1.5-2.3-6.6-1.9-8.5-1.5-.4.1-.8-.1-1-.4l-1-1.5h-2.1l-1 1.5c-.2.3-.6.5-1 .4-1.8-.4-7-.8-8.5 1.5-1.2 1.8-.1 5.4 3.2 10.3.1.2.2.5.2.7l-.8 5.5c-.1.5-.6.9-1.1.9-.5-.1-.9-.6-.9-1.1l.7-5.1c-3.7-5.6-4.7-9.6-3-12.2 2.2-3.3 7.9-2.8 9.9-2.5l1-1.5c.2-.3.5-.4.8-.4h3c.3 0 .6.2.8.4l1 1.5c2-.3 7.7-.8 9.9 2.5 1.7 2.6.8 6.6-2.9 12.2l.9 5.1c.1.5-.3 1.1-.8 1.2-.1-.2-.2-.2-.2-.2zm-8.8-6.5c-.3 0-.6-.1-.8-.3-.4-.4-.5-.9-.6-1.1 0-.2-.4-5.1 2.2-7.6 1.2-1.2 2.8-1.6 4.7-1.4 1.9 0 3.5 1.6 3.5 3.6s-1.6 3.6-3.6 3.6c-1.2 0-2.2-.6-2.9-1.5-.7.9-1.1 2.1-1.2 3.4-.1.6-.5 1.3-1.3 1.4.1-.1.1-.1 0-.1zm3-7.6c.1 0 .3 0 .4.1.3.1.6.5.6.8.1.8.7 1.4 1.5 1.4.9 0 1.6-.7 1.6-1.6s-.7-1.6-1.6-1.6h-.1c-1.3-.2-2.4.1-3.1.9-.3.3-.5.6-.7.9.2-.3.5-.5.8-.8.1 0 .4-.1.6-.1zm-6 7.6h-.2c-.8-.1-1.2-.8-1.3-1.4-.2-1.3-.6-2.5-1.2-3.4-.6.9-1.7 1.5-2.9 1.5-2 0-3.6-1.6-3.6-3.6 0-1.9 1.6-3.5 3.5-3.6 1.9-.2 3.5.3 4.7 1.4 2.6 2.5 2.2 7.4 2.2 7.6s-.1.8-.6 1.1c0 .3-.3.4-.6.4zm-4.7-8.5h-.8c-.9 0-1.6.7-1.6 1.6s.7 1.6 1.6 1.6c.8 0 1.5-.6 1.5-1.4 0-.4.3-.7.6-.8.3-.1.7-.1 1 .2.3.2.5.5.8.8-.2-.4-.4-.7-.7-1-.6-.7-1.4-1-2.4-1z"/><path class="st0" d="M789 288.5h-.3c-3.7-1.1-7.1-3.6-9.8-5.9.5.4.9.8 1.2 1 .4.3.5.9.2 1.3s-.8.6-1.3.4c-20.2-10.4-28.3-25.4-31.6-36.1-2.2-7.3-2.6-13.6-2.5-17.4l-.4.6c-.3.4-.7.5-1.1.4s-.7-.5-.7-1c0-2 .6-4.3 1.3-6.4h-.4c-.4-.1-.7-.5-.7-.9 0-1.7.8-4.4 1.8-6.9-.2 0-.3 0-.5-.1-.4-.2-.7-.5-.6-1 .1-2 .9-4.2 1.9-6.1-.2 0-.3 0-.5-.1-.4-.2-.6-.7-.5-1.1 1.7-7.6 5.3-12.8 10.6-15.3 8.8-4.2 19.3.4 20.7 1.1 7.5 1.1 11.8 3.4 12.8 7 1.6 5.5-5.4 11.5-5.7 11.7-.3.3-.8.3-1.2.1-.4-.3-.5-.7-.4-1.1.6-1.8 1.1-4.3-.1-5.3-2.2-2-9.5.4-13.6 2.3-1.5 1.1-2.4 2.5-2.5 4.3-.5 7.4 10.8 18.1 10.9 18.2.3.3.4.7.2 1.1-.2.4-.5.6-.9.6h-.3c-6.5 0-10.8 1.7-12.8 5.1-4.1 6.8 2.3 18.5 2.4 18.6 7.6 15.1 44.8 26.3 45.2 26.4.5.1.8.6.7 1.1s-.5.9-1 .8l-5.2-.1.8 1.2c.2.3.2.7 0 1.1-.2.3-.6.5-.9.5-3.6-.3-6.1-1.4-7.9-2.7.2.2.3.4.4.5.3.3.3.8.1 1.2-.3.4-.7.5-1.2.4-.7-.3-1.4-.6-1.9-.9 0 .2-.1.3-.2.5-.2.3-.7.5-1.1.4-1.3-.3-2.6-1.1-3.7-1.9.3.4.6.7.8.9.3.3.4.8.2 1.2 0 .1-.3.3-.7.3zm5.1-7.6c.4 0 .7.2.9.5.1.2 2.1 3.5 7.4 4.6l-.6-.9c-.2-.3-.2-.7 0-1 .2-.3.5-.5.9-.5h.5c-3.7-1.3-8.7-3.2-13.9-5.6-14.1-6.4-23-13.1-26.3-19.8-.3-.5-7-12.7-2.3-20.6 2.1-3.6 6.3-5.6 12.4-6-3.3-3.5-10.4-11.6-9.9-18.1.2-2.4 1.3-4.4 3.4-5.8l.1-.1c1.2-.6 11.8-5.5 15.8-2.1 1 .9 1.5 2.3 1.4 4 1.7-2.1 3.5-4.9 2.8-7.3-.8-2.7-4.7-4.6-11.3-5.6-.1 0-.2 0-.3-.1s-10.7-5.1-19.1-1.1c-3.9 1.9-6.8 5.4-8.5 10.6l2.4-2.2c.4-.4 1-.3 1.4 0 .4.4.4 1 0 1.4 0 0-2.8 3.2-4.5 6.8l.7-.8c.3-.4.9-.5 1.3-.2s.6.8.4 1.3c-.8 1.6-2.4 5-3.3 8l1-1.3c.3-.4.9-.5 1.3-.2s.6.9.3 1.3c0 0-2 3.7-3.1 7.4.3-.3.7-.4 1.1-.3.4.2.7.6.6 1.1 0 .3-4.2 32.4 27.6 52.2-.7-1.2-1.2-2.6-1.3-4 0-.4.3-.8.7-1 .4-.1.9 0 1.1.3.1.1 4.9 6.2 10.8 9.3-.4-.9-.7-1.9-.6-3 0-.4.3-.7.7-.9.4-.1.8 0 1.1.3 0 0 1.6 1.9 3.6 3.2-.1-.5-.2-.9-.1-1.4 0-.4.4-.8.8-.9.4-.1.9.1 1.1.5 0 0 .2.4.7.9-.2-.7-.3-1.4-.2-2.1.1-.4.4-.8.8-.9.1.2.1.1.2.1z"/><path class="st0" d="M765.7 202.2c-.3 0-.5-.1-.7-.3-.2-.2-2.2-2.4-1.6-4.4.2-.7.9-1.6 2.6-2 .5-.1 1.1.2 1.2.8.1.5-.2 1.1-.8 1.2-.3.1-1 .3-1.2.6-.2.6.6 1.8 1.2 2.4.4.4.4 1-.1 1.4-.1.2-.3.3-.6.3z"/><path class="st0" d="M764.1 202.6c-.4 0-.8-.3-1-.7-.2-.5.1-1.1.7-1.2.9-.3 5.8-1.6 10.5-2-2.2-.5-5.1-.9-8.9-1.1-2.5.1-4.5-.1-4.7-.1-.5 0-.9-.5-.9-1s.5-1 1-1c1.7 0 3.2 0 4.6.1 2.7-.1 5.6-.4 7.1-1.3.5-.3 1.1-.1 1.4.3.3.5.1 1.1-.3 1.4-.2.1-.5.3-.7.4 7.7 1.4 9.8 3.8 9.9 4 .3.4.3 1-.1 1.4-.4.4-1 .4-1.4 0-2.3-2.2-11.6-.6-17 .9 0-.1-.1-.1-.2-.1z"/><path class="st0" d="M770.6 201.1c-.4 0-.7-.2-.9-.6-.2-.5 0-1.1.5-1.3.3-.1.4-.3.4-.4.1-.4-.2-1.1-.3-1.3-.3-.5-.1-1.1.3-1.4.5-.3 1.1-.1 1.4.3.1.2.9 1.6.5 2.9-.2.7-.7 1.3-1.4 1.6-.2.2-.4.2-.5.2zm-3-.7c-1 0-1.8-.8-1.8-1.8s.8-1.8 1.8-1.8 1.8.8 1.8 1.8-.8 1.8-1.8 1.8zm0-2c-.1 0-.2.1-.2.2 0 .3.5.3.5 0 0-.1-.1-.2-.3-.2zm-4.9 11.1c-.1 0-.2 0-.3-.1-.5-.2-.8-.8-.6-1.3.8-2.2-.8-3-1.2-3.1-.5-.2-.8-.8-.5-1.3.2-.5.8-.8 1.3-.6 1.3.5 3.5 2.4 2.3 5.6-.2.5-.6.8-1 .8z"/><path class="st0" d="M782.3 213.8c-.1 0-.3 0-.4-.1-.5-.2-.7-.8-.5-1.3 1.4-2.9 1.6-5 .6-6.2-2.6-2.9-12.8-.9-18.7 1-.5.2-1.1-.1-1.3-.6-.2-.5.1-1.1.6-1.3 1.7-.6 16.5-5.3 20.8-.4 1.6 1.8 1.5 4.7-.3 8.4-.1.3-.5.5-.8.5zm-24.9 53.5c-.2 0-.4-.1-.5-.2-9.7-6.4-15-13.1-15.7-20.1-.7-7.3 4-12 4.2-12.2.4-.4 1-.4 1.4 0 .4.4.4 1 0 1.4 0 0-4.2 4.3-3.6 10.6.6 6.3 5.6 12.6 14.8 18.6.5.3.6.9.3 1.4-.3.4-.6.5-.9.5z"/><path class="st0" d="M748.8 293c-.3 0-.6-.1-.8-.4-.3-.3-.3-.8-.1-1.2l.4-.5-1.5-.1c-.4 0-.8-.3-.9-.7-.1-.4 0-.8.3-1.1l1.8-1.6-4.3-.4c-.4 0-.8-.3-.9-.7-.1-.4 0-.8.4-1.1l3-2.1-4.6-1.7c-.5-.2-.7-.7-.6-1.1.1-.5.5-.8 1-.8 4.9.3 8.8-.8 11.5-3.3 3.8-3.4 4.1-8.4 4.1-8.4 0-.6.5-1 1-.9.6 0 1 .5.9 1 0 .2-.3 5.8-4.8 9.8-2.1 1.9-4.8 3.1-8 3.6l1.7.6c.3.1.6.4.6.8s-.1.7-.4.9l-2.3 1.6 3.9.3c.4 0 .7.3.9.7.1.4 0 .8-.3 1.1l-1.7 1.5.8.1c.4 0 .7.2.8.5.1.1.1.3.1.5l9.3-3.7c.3-.1.7-.1 1 .1.3.2.4.6.4.9l-.2 1.1 1.7-1.7c.3-.3.7-.4 1.1-.2.3.1.5.4.6.8l1.9-2.2c.3-.3.7-.4 1.1-.3.4.2.6.6.6 1l-.1 1 5.6-5.9c.4-.4 1-.4 1.4 0s.4 1 0 1.4l-7.5 8c-.3.3-.7.4-1.1.2-.4-.2-.6-.6-.6-1l.1-.8-1.7 1.9c-.3.3-.7.4-1.1.3s-.6-.5-.6-.9v-.1l-2.1 2.2c-.3.3-.8.4-1.2.2-.4-.2-.6-.6-.5-1l.4-2.4-10.3 4.1c0 .1-.1.1-.2.1zm41.2 14.1h-.3c-.4-.1-.7-.5-.7-1v-2.4c-.5 1-.9 1.8-1 2.1-.2 1-1 .9-1.1.9-.8-.1-1-.1-1.3-3.6-.6 1.4-1.1 2.5-1.2 2.8v-.2c0 1.1-.3 1.1-.8 1.2-.5 0-1-.4-1.1-.9v-.2c0-.6-.2-2.9-.3-5.2l-3.7 5.1c-.3.4-.9.5-1.3.3-.4-.3-.6-.9-.4-1.3 5.6-10.6-1.3-21.4-1.4-21.5-.3-.5-.2-1.1.3-1.4s1.1-.2 1.4.3c.3.4 5.2 8 3.7 17.1l1.4-2c.2-.3.7-.5 1.1-.4s.7.5.7.9l.3 3.9c.4-.8.8-1.6 1.3-2.7.2-.4.7-.6 1.1-.5.4.1.8.5.8.9 0 .9.1 1.9.2 2.9.7-1.2 1.4-2.4 1.6-2.7.2-.4.7-.6 1.1-.4.4.1.7.5.7 1v2.5l1.8-3c.2-.3.6-.5 1-.5s.7.3.8.7l.5 1.4.8-4.5c.1-.5.5-.8 1-.8.4 0 .7.2.9.6l1.3-6.4c.1-.5.6-.9 1.2-.8.5.1.9.6.8 1.2l-2.5 12.3c-.1.5-.5.8-1 .8-.3 0-.6-.2-.8-.4l-.5 2.5c-.1.5-.5.8-.9.8s-.9-.3-1-.7l-1-3.1-2.5 4.3c-.3-.1-.7.1-1 .1z"/><path class="st0" d="M815.1 311.3c-.4 0-.8-.3-.9-.7-3.8-11.2-19.3-24-19.5-24.2-.4-.4-.5-1-.1-1.4s1-.5 1.4-.1c.6.5 12.1 10 17.8 20.1l-.2-3.7c0-.5.3-.9.7-1 .5-.1.9.1 1.2.5l2.2 4-.2-3.3c0-.4.2-.8.6-1s.9 0 1.1.3l3.2 4-.8-5.6c-.1-.4.2-.9.6-1.1s.9-.1 1.2.3l3.5 4.4c-2.4-6.3-7.8-16.3-17.4-17.1-.6 0-1-.5-.9-1.1 0-.6.5-1 1.1-.9 6.4.5 12.1 4.8 16.3 12.5 3.1 5.6 4.4 11.1 4.5 11.3.1.5-.1.9-.5 1.1-.4.2-.9.1-1.2-.3l-4.7-5.8.8 5.6c.1.4-.2.9-.6 1.1s-.9.1-1.2-.3l-3.5-4.3.3 4.7c0 .5-.3.9-.7 1-.5.1-.9-.1-1.2-.5l-2.3-4.1.3 4.6c0 .5-.3.9-.9 1zm7.8-42.3c-1.9 0-9.1-.6-18.4-8.3-.3-.2-.6-.5-.9-.8-.4-.4-.5-1-.1-1.4.4-.4 1-.5 1.4-.1.3.3.6.5.9.7 6.8 5.7 12.4 7.2 15.3 7.7-26.6-32.9-45.6-33.2-45.7-33.2-.6 0-1-.4-1-1s.4-1 1-1c1 0 20.9.5 48.7 35.7.2.3.3.7.1 1-.1.3-.5.6-.8.6 0 .1-.2.1-.5.1z"/><path class="st0" d="M817.5 271.3h-.1c-10.3-1.1-24.7-11.3-25.3-11.7-.5-.3-.6-.9-.2-1.4.3-.5.9-.6 1.4-.2.1.1 13 9.1 22.6 11.1-.5-.9-1.1-1.8-1.8-2.3-.4-.3-.6-.9-.2-1.4.3-.4.9-.6 1.4-.2 1.9 1.4 3.1 4.5 3.2 4.9.1.3.1.7-.2 1-.2.1-.5.2-.8.2z"/><path class="st0" d="M807.6 271.7c-7.4 0-25.2-11.2-25.9-11.7-.5-.3-.6-.9-.3-1.4.3-.5.9-.6 1.4-.3 4.8 3 17.2 10.2 23.4 11.2-1-1.3-2.6-3-3.9-3.8-.5-.3-.6-.9-.3-1.4.3-.5.9-.6 1.4-.3 2.6 1.5 5.6 5.8 5.7 6 .2.3.2.7.1 1s-.4.5-.8.6c-.3.1-.5.1-.8.1zm20.3 13.5c-3.5 0-8.7-1.4-13.2-8.3-.3-.5-.2-1.1.3-1.4s1.1-.2 1.4.3c4.4 6.6 9.2 7.6 12.1 7.5-4.8-3.8-9.6-13.9-10.2-15.3-.2-.5 0-1.1.5-1.3.5-.2 1.1 0 1.3.5 2.7 5.9 8.2 15.3 11.6 15.5.5 0 .8.4.9.8.1.5-.2.9-.6 1.1 0-.1-1.6.6-4.1.6z"/><path class="st0" d="M819.8 285.5c-.1 0-.2 0-.3-.1-2.8-1-7-4.2-9.8-6.5l1.1 3.2c.1.4 0 .8-.3 1.1-.3.3-.8.3-1.2.1l-6.2-3.9.3.6c.2.3.2.8-.1 1.1-.2.3-.6.5-1 .4l-9.9-2.2c-.5-.1-.9-.7-.8-1.2s.7-.9 1.2-.8l7.7 1.7-1.2-2.1c-.2-.4-.1-.9.2-1.2.3-.3.8-.4 1.2-.1l7.1 4.5-1.3-3.9c-.1-.4 0-.9.4-1.2.4-.3.9-.2 1.2.1.1.1 6.3 5.5 10.4 7.7l-.2-2c-.1-.5.3-1 .9-1.1.5-.1 1 .3 1.1.9l.4 3.7c0 .3-.1.7-.4.9-.1.3-.3.3-.5.3zm-100.2.8c-.4 0-.7-.2-.9-.5-1.5-2.8-1.7-5.1-.9-6.8 1-2 3.2-2.3 3.3-2.3.3 0 8-1.3 14.6 2.3 5.7 3.1 8.6 1.8 8.6 1.8.5-.2 1.1 0 1.3.5.2.5.1 1.1-.4 1.3-.1.1-3.8 1.9-10.5-1.8-6-3.2-13.2-2-13.3-2 0 0-1.3.2-1.8 1.2-.5 1.1-.2 2.8.9 4.9.3.5.1 1.1-.4 1.3-.2 0-.3.1-.5.1zm11.1 26.5h-5.2c-2.2 0-4-1.8-4-4v-6.6c0-.6.4-1 1-1s1 .4 1 1v6.6c0 1.1.9 2 2 2h5.2c1.1 0 2-.9 2-2 0-.6.4-1 1-1s1 .4 1 1c0 2.2-1.8 4-4 4z"/><path class="st0" d="M732.4 304.7c-1.7 0-3.2-.7-3.4-.8-2.6-1.1-4-2.6-4-4.4 0-3.2 4.4-6.4 8.1-8.5-2.6.4-5.7 1.3-7.6 2.9-1.6 1.4-3.2 1.9-4.8 1.7-2.2-.3-3.3-2.2-3.4-2.3l-.1-.1c-1.3-3.1-1.2-5.6.3-7.4 4.4-5.2 19.3-1.7 20.9-1.3.5.1.9.7.7 1.2-.1.5-.7.9-1.2.7-4.2-1-15.9-2.9-18.9.7-1 1.1-1 2.9 0 5.2.2.2.9 1.1 2 1.3.9.1 2-.3 3.2-1.2 4.5-3.8 13.6-3.9 14-3.9.5 0 .9.3 1 .8.1.5-.1.9-.6 1.1-4.5 2-11.7 6.2-11.6 9.1 0 1.2 1.5 2.1 2.8 2.6h.1s2 1.1 3.7.4c.8-.3 1.5-1 1.9-2.1.3-1.2 3.4-12.9 13.1-14.4.5-.1 1.1.3 1.1.8.1.5-.3 1.1-.8 1.1-8.8 1.4-11.5 12.9-11.5 13v.1c-.6 1.7-1.7 2.8-3.1 3.3-.7.3-1.3.4-1.9.4z"/><path class="st0" d="M722.5 303.2h-.3c-.2-.1-5.9-1.8-6.9-5.5-.5-1.8.2-3.7 2-5.6.4-.4 1-.4 1.4 0 .4.4.4 1 0 1.4-1.3 1.4-1.8 2.6-1.6 3.7.4 1.4 2 2.6 3.5 3.3-.3-1.3-.6-2.9 0-4.5.5-1.7 1.8-2.9 3.6-3.8.5-.2 1.1 0 1.3.5.2.5 0 1.1-.5 1.3-1.3.6-2.2 1.5-2.5 2.6-.8 2.3.8 5.1.8 5.2.2.4.2.8-.1 1.1-.1.2-.4.3-.7.3zm6.9 7.2c-1.2 0-2.1-.3-2.9-.9-3-2.4-1.3-8.2-1.1-8.9.2-.5.7-.8 1.2-.7.5.2.8.7.7 1.2-.4 1.3-1.2 5.4.5 6.7.6.5 2.1.9 5.5-.5-1.1-.2-2.1-.6-2.6-1.4-.4-.5-.7-1.4-.1-2.7.2-.5.8-.7 1.3-.5s.7.8.5 1.3c-.1.2-.2.5-.1.7.5.6 2.9.8 4.9.6.5 0 .9.2 1.1.7.1.4 0 .9-.4 1.2-3.6 2.2-6.4 3.2-8.5 3.2z"/><path class="st0" d="M733.6 307.1c-.6 0-1-.4-1-1v-2.6c0-.6.4-1 1-1s1 .4 1 1v2.6c0 .5-.4 1-1 1zm0-14.4c-.6 0-1-.4-1-1v-1.6c0-.6.4-1 1-1s1 .4 1 1v1.6c0 .5-.4 1-1 1zm32.2 37.4h-.3c-1.5-.2-2.1-2.1-2.3-2.6l-2.5-4.7c-.8-1.1-.6-2.1-.4-2.7.4-1.2 1.7-2.2 3.3-3.1-.6.2-1.1.4-1.6.6-1.4.7-3.2 1.4-4.3.5-.7-.6-.7-1.5-.5-2.2.3-1.8-.2-2.9-.4-3.2-3.1-2.5-4.3-4.3-3.9-5.7.2-.9 1.1-1.3 1.5-1.3.3-.1 8.4-1.7 19 4.4 2 1.1 3.6 1.4 4.8.6 3.1-1.9 3.4-9.6 3.3-12.4 0-.6.4-1 .9-1s1 .4 1 .9c.1 1.2.4 11.4-4.2 14.2-1.8 1.1-4.1.9-6.8-.6-9.5-5.5-16.9-4.3-17.6-4.2.1.3.6 1.4 3.3 3.6l.2.2c.1.1 1.4 1.9.8 4.9v.1c.3 0 .9-.2 2-.7 4.4-2.2 13.3-2.6 13.6-2.6.5 0 1 .4 1 .9.1.5-.3 1-.8 1.1-4.8 1-12 3.4-12.8 5.6-.1.2-.1.5.2.9l.1.1 2.5 4.8c0 .1.1.2.1.2.1.6.5 1.2.6 1.2 0 0 .7 0 2.1-2.4l.3-.6c2.6-4.6 5.6-9.8 9.7-10.7 1.7-.4 3.5 0 5.2 1.2.3.2 5.4 4.5 4.4 10-.1.5-.1 1.3.2 1.5.8.6 3 0 4.3-.6.1 0 .6-.3.8-1 .3-1 .2-3.4-3.6-8.4-7.3-9.8-4-12.9-3.5-13.2.4-.3 1.1-.3 1.4.2.3.4.3 1.1-.2 1.4 0 0-2.2 2.3 3.9 10.5 3.3 4.4 4.6 7.8 3.9 10.2-.5 1.7-1.8 2.2-1.9 2.2-.7.3-4.4 1.8-6.3.3-.6-.5-1.3-1.5-1-3.4.8-4.4-3.6-8.1-3.7-8.1-1.2-.8-2.4-1.1-3.6-.8-3.3.8-6.1 5.7-8.4 9.8l-.3.6c-.5 1.6-1.9 3.5-3.5 3.5z"/><path class="st0" d="M753 320.2c-.1 0-.3 0-.4-.1-.2-.1-3.9-1.7-4.1-4.8-.1-2.3 1.9-4.7 5.9-6.9.5-.3 1.1-.1 1.4.4.3.5.1 1.1-.4 1.4-3.2 1.8-4.9 3.6-4.9 5.1 0 .7.5 1.4 1.1 1.9 0-.8.2-1.6.7-2.4 1-1.4 2.9-2.1 5.7-2 .6 0 1 .5 1 1 0 .6-.5 1-1 1-1.4-.1-3.2.1-4 1.1-.7.9-.3 2.4-.1 2.9.2.4.1.8-.2 1.1-.2.2-.5.3-.7.3zm10.1 12h-.2c-.6-.1-5.9-1.3-6.5-4.6-.3-2 1.2-4.1 4.7-6.2.5-.3 1.1-.1 1.4.3.3.5.1 1.1-.3 1.4-2.6 1.6-4 3.1-3.8 4.2.2.9 1.3 1.6 2.5 2.2-.1-.4-.1-.8 0-1.2.3-1.1 1.3-1.8 3.1-2.2.5-.1 1.1.2 1.2.8.1.5-.2 1.1-.8 1.2-1 .2-1.5.5-1.5.7-.1.4.5 1.2.9 1.7.3.3.4.8.2 1.2-.2.3-.6.5-.9.5zm23.9-.2c-2.2 0-4.6-1.1-7-3.3-.4-.3-.4-.9-.1-1.3s.9-.5 1.3-.3c.1 0 2.3 1.2 4.9-.4.5-.3 1.1-.2 1.4.3s.2 1.1-.3 1.4c-.9.6-1.8.9-2.7 1.1 1.2.5 2.2.7 3.3.6 2.5-.4 3.9-2.9 3.9-2.9.3-.5.9-.7 1.4-.4.5.3.7.9.4 1.4-.1.1-1.8 3.4-5.3 4-.4-.2-.8-.2-1.2-.2z"/><path class="st0" d="M757.2 328.4h-30.8c-.3 0-.7-.2-.8-.5l-10-15.3c-.2-.3-.2-.7 0-1 .2-.3.5-.5.9-.5H751c.6 0 1 .4 1 1s-.4 1-1 1h-32.7l8.7 13.3h30.2c.6 0 1 .4 1 1s-.4 1-1 1z"/><path class="st0" d="M748.4 328.4c-.3 0-.6-.2-.8-.5l-10-15.3c-.3-.5-.2-1.1.3-1.4s1.1-.2 1.4.3l10 15.3c.3.5.2 1.1-.3 1.4-.2.2-.4.2-.6.2zm29.8-.1c-.3 0-.7-.2-.8-.5l-5.1-8.1c-.3-.5-.1-1.1.3-1.4.5-.3 1.1-.1 1.4.3l5.1 8.1c.3.5.1 1.1-.3 1.4-.3.2-.4.2-.6.2zm32.2.1c-.3 0-.6-.2-.8-.5l-10-15.3c-.3-.5-.2-1.1.3-1.4s1.1-.2 1.4.3l10 15.3c.3.5.2 1.1-.3 1.4-.2.2-.4.2-.6.2z"/><path class="st0" d="M767.9 328.4c-.5 0-1-.4-1-1s.4-1 1-1l18.8-.1c.5 0 1 .4 1 1s-.4 1-1 1l-18.8.1zm64.1 0h-39.4c-.6 0-1-.4-1-1s.4-1 1-1h37.6l-8.7-13.3h-34c-.6 0-1-.4-1-1s.4-1 1-1H822c.3 0 .7.2.8.5l10 15.3c.2.3.2.7 0 1-.1.3-.4.5-.8.5zm66.1-123l-7.4-12.4c-.7-1.2-1.4-2.1-2.1-2.5-.7-.4-1.5-.6-2.5-.6h-1.3v10.6c0 1.1.1 1.9.3 2.5.2.6.5 1.1.7 1.5.3.4.5.6.8.7l.5.2h-8.9c.1 0 .3-.1.5-.2.3-.1.6-.3.8-.7.3-.3.5-.8.7-1.5.2-.6.3-1.5.3-2.6v-25.3c0-1.1-.1-2-.3-2.6-.2-.7-.5-1.2-.8-1.5-.3-.4-.6-.6-.9-.7-.3-.1-.5-.2-.6-.2h12.4c1.7 0 3.3.2 4.7.7s2.6 1.2 3.6 2.1 1.8 1.9 2.3 3.1.8 2.4.8 3.8c0 1.1-.2 2.1-.6 3.2-.4 1.1-.9 2.1-1.7 3-.8.9-1.8 1.7-3 2.3-1.2.6-2.7 1-4.4 1.1.5.2.9.5 1.4 1s.9 1.1 1.3 1.8l6.2 10.1c.7 1.1 1.5 1.9 2.2 2.3.7.4 1.4.6 2 .7h-7v.1zm-.6-25.4c0-.9-.2-1.8-.5-2.7-.3-.9-.8-1.7-1.5-2.4s-1.5-1.2-2.5-1.7c-1-.4-2.2-.6-3.5-.6h-4.8v14.7h4.8c1.5 0 2.7-.2 3.7-.6s1.8-.9 2.5-1.6c.6-.7 1.1-1.4 1.4-2.3.2-.9.4-1.8.4-2.8zm35.4 12.5c0 1.6-.2 3.2-.7 4.8-.5 1.6-1.3 3.1-2.3 4.4s-2.3 2.4-3.9 3.2c-1.6.8-3.4 1.2-5.5 1.2-2 0-3.8-.4-5.3-1.1s-2.7-1.7-3.7-2.9-1.7-2.6-2.1-4.1c-.5-1.5-.7-3.1-.7-4.6 0-1.6.2-3.2.7-4.9.5-1.6 1.2-3.1 2.3-4.4 1-1.3 2.3-2.4 3.9-3.2 1.6-.8 3.4-1.2 5.5-1.2s3.8.4 5.3 1.1c1.5.8 2.7 1.8 3.7 3s1.7 2.6 2.2 4.1c.4 1.5.6 3.1.6 4.6zm-4.2 1.1c0-1.3-.2-2.6-.5-4-.4-1.4-.9-2.6-1.6-3.7s-1.6-2-2.7-2.7-2.3-1.1-3.8-1.1c-1.3 0-2.4.3-3.4 1-.9.6-1.7 1.5-2.3 2.4-.6 1-1 2.1-1.3 3.2-.3 1.2-.4 2.3-.4 3.3 0 1.3.2 2.6.5 4 .4 1.4.9 2.6 1.6 3.7.7 1.1 1.6 2 2.7 2.7 1.1.7 2.3 1.1 3.8 1.1 1.3 0 2.4-.3 3.3-1s1.7-1.5 2.3-2.4c.6-1 1-2.1 1.3-3.2.4-1.1.5-2.2.5-3.3zm32.2-13.1l-.5.3c-.2.1-.5.3-.8.6-.3.3-.7.7-1.1 1.3-.4.6-.8 1.3-1.1 2.2l-6.9 17.6c-1.3 3.4-2.8 6.3-4.4 8.7-1.6 2.4-3.3 3.9-5.2 4.6l-4.8-4.3c.4.2.8.3 1.3.4s.9.1 1.3.1c.7 0 1.4-.1 2.1-.3.7-.2 1.3-.6 1.9-1.1s1.3-1.3 1.9-2.3c.7-1 1.4-2.2 2.1-3.7l-7.7-19.8c-.4-.9-.7-1.6-1.1-2.1-.4-.5-.8-.9-1.1-1.2-.3-.3-.6-.5-.9-.6s-.5-.2-.6-.2h9.1c-.2.1-.5.3-.9.6s-.6.8-.6 1.6c0 .4.1.8.2 1.2.1.4.3.8.5 1.3l5.3 13.9 5.2-13.2c.5-1.2.7-2.2.7-3 0-.5-.1-.8-.2-1.1-.1-.3-.3-.5-.5-.7-.2-.2-.4-.3-.6-.4-.1 0-.3-.1-.4-.1h7.8v-.3zm21 25.9c-1.1-.2-2-.7-2.8-1.5-.8-.8-1.2-1.6-1.4-2.5-.7 1.2-1.7 2.2-3.2 2.8-1.5.6-3 1-4.7 1-1 0-1.9-.1-2.7-.4-.8-.2-1.6-.6-2.3-1.1-.7-.5-1.2-1.1-1.5-1.8-.4-.7-.6-1.6-.6-2.5s.2-1.8.7-2.7 1.3-1.8 2.5-2.6c1.2-.9 2.6-1.6 4.5-2.4 1.8-.7 4.1-1.4 6.8-2v-2.8c0-2-.5-3.5-1.4-4.5s-2.1-1.5-3.7-1.5c-1.8 0-3.1.4-4 1.1s-1.3 1.6-1.3 2.5c0 .6.1 1.1.4 1.5.2.4.6.7 1 .8l-4.3 1.8c-.2-.3-.3-.7-.5-1.2-.1-.5-.2-1.1-.2-1.7 0-.8.2-1.7.6-2.6.4-.9 1-1.6 1.9-2.3.8-.7 1.9-1.2 3.1-1.6s2.7-.6 4.4-.6c2.7 0 4.7.7 6 2.1 1.3 1.4 1.9 3.2 1.9 5.4v11.5c0 1.3.3 2.5.9 3.5s1.6 1.5 3 1.5c.2 0 .5 0 .8-.1l-3.9 2.9zm-4.7-13.6c-3.7.8-6.4 1.8-8 2.9s-2.5 2.4-2.5 3.9c0 1.3.4 2.3 1.3 3 .8.7 1.9 1.1 3.1 1.1.8 0 1.5-.1 2.3-.4.7-.3 1.4-.6 1.9-1.1.6-.5 1-1 1.4-1.7s.5-1.3.5-2.1v-5.6zm15.9 8c0 1 .1 1.8.3 2.4.2.6.4 1.1.6 1.4.2.3.5.5.7.6.2.1.3.2.4.2h-8c.1 0 .2-.1.4-.2s.5-.3.7-.6c.2-.3.4-.8.6-1.4.2-.6.3-1.4.3-2.4v-24.4c0-1.1-.1-1.9-.2-2.5-.1-.6-.3-1.1-.5-1.5-.2-.4-.5-.6-.8-.7-.3-.1-.7-.2-1.1-.2h-.4l7-2.8v32.1zm47.7.2c-1.3 1.6-3 2.8-5 3.7-2 .9-4.2 1.4-6.7 1.4-2.9 0-5.5-.5-7.7-1.5s-4-2.3-5.4-4-2.5-3.6-3.2-5.7c-.7-2.1-1.1-4.3-1.1-6.6 0-2.4.4-4.7 1.2-7 .8-2.3 2-4.4 3.5-6.2 1.6-1.8 3.5-3.3 5.9-4.4 2.3-1.1 5.1-1.7 8.2-1.7 1.9 0 3.7.2 5.3.7 1.6.4 3 1 4.2 1.6v7.7c-.8-2.3-2.1-4.1-3.9-5.3-1.7-1.2-3.9-1.8-6.7-1.8-2.2 0-4.1.4-5.7 1.3s-3 2-4.1 3.5c-1.1 1.4-1.9 3.1-2.5 4.9-.5 1.8-.8 3.7-.8 5.6 0 2 .3 3.9.8 5.8.6 1.9 1.4 3.6 2.5 5.1s2.5 2.7 4.2 3.6c1.7.9 3.7 1.4 5.9 1.4 2 0 3.9-.5 5.8-1.5s3.6-2.4 5-4.1v3.5h.3zm28.1-8.5c0 1.6-.2 3.2-.7 4.8-.5 1.6-1.3 3.1-2.3 4.4s-2.3 2.4-3.9 3.2c-1.6.8-3.4 1.2-5.5 1.2-2 0-3.8-.4-5.3-1.1s-2.7-1.7-3.7-2.9-1.7-2.6-2.1-4.1c-.5-1.5-.7-3.1-.7-4.6 0-1.6.2-3.2.7-4.9.5-1.6 1.2-3.1 2.3-4.4 1-1.3 2.3-2.4 3.9-3.2 1.6-.8 3.4-1.2 5.5-1.2s3.8.4 5.3 1.1c1.5.8 2.7 1.8 3.7 3s1.7 2.6 2.2 4.1c.4 1.5.6 3.1.6 4.6zm-4.2 1.1c0-1.3-.2-2.6-.5-4-.4-1.4-.9-2.6-1.6-3.7s-1.6-2-2.7-2.7-2.3-1.1-3.8-1.1c-1.3 0-2.4.3-3.4 1-.9.6-1.7 1.5-2.3 2.4-.6 1-1 2.1-1.3 3.2-.3 1.2-.4 2.3-.4 3.3 0 1.3.2 2.6.5 4 .4 1.4.9 2.6 1.6 3.7.7 1.1 1.6 2 2.7 2.7 1.1.7 2.3 1.1 3.8 1.1 1.3 0 2.4-.3 3.3-1s1.7-1.5 2.3-2.4c.6-1 1-2.1 1.3-3.2.4-1.1.5-2.2.5-3.3zm14.3 7.2c0 1 .1 1.8.3 2.4.2.6.4 1.1.6 1.4.2.3.5.5.7.6.2.1.3.2.4.2h-8c.1 0 .2-.1.4-.2s.5-.3.7-.6c.2-.3.4-.8.6-1.4.2-.6.3-1.4.3-2.4v-24.4c0-1.1-.1-1.9-.2-2.5-.1-.6-.3-1.1-.5-1.5-.2-.4-.5-.6-.8-.7-.3-.1-.7-.2-1.1-.2h-.4l7-2.8v32.1zm12 0c0 1 .1 1.8.3 2.4.2.6.4 1.1.6 1.4.2.3.5.5.7.6.2.1.3.2.4.2h-8c.1 0 .2-.1.4-.2s.5-.3.7-.6c.2-.3.4-.8.6-1.4.2-.6.3-1.4.3-2.4v-24.4c0-1.1-.1-1.9-.2-2.5-.1-.6-.3-1.1-.5-1.5-.2-.4-.5-.6-.8-.7-.3-.1-.7-.2-1.1-.2h-.4l7-2.8v32.1zm26.7-2.6c-.7 2.6-1.9 4.6-3.6 5.9-1.6 1.3-3.6 2-6 2-1.8 0-3.5-.4-4.8-1.1-1.4-.7-2.5-1.7-3.5-2.9-.9-1.2-1.6-2.6-2.1-4.1s-.7-3.1-.7-4.8c0-1.9.3-3.7.8-5.4.5-1.7 1.2-3.1 2.2-4.4.9-1.2 2.1-2.2 3.4-2.9 1.3-.7 2.8-1.1 4.5-1.1 1.6 0 3 .4 4.2 1.1 1.2.7 2.1 1.7 2.9 2.9.8 1.2 1.3 2.6 1.7 4.1s.6 3.1.7 4.8H1101c0 1.7.2 3.1.7 4.4s1.1 2.4 1.9 3.3 1.7 1.6 2.7 2c1 .5 2.1.7 3.2.7 1.4 0 2.8-.4 4.3-1.1 1.4-.6 2.7-1.8 3.9-3.4zm-4.7-7.9c0-.9-.1-1.9-.3-2.9-.2-1-.5-1.9-.9-2.7-.4-.8-1-1.5-1.7-2s-1.5-.8-2.6-.8-2 .3-2.8.8c-.8.5-1.4 1.2-2 2-.5.8-1 1.7-1.3 2.7-.3 1-.5 2-.5 2.9h12.1zm30.8 17.3c0 1-.3 2-.8 2.9-.6 1-1.4 1.8-2.6 2.6-1.2.8-2.6 1.4-4.3 1.9-1.7.5-3.8.7-6.1.7-1.1 0-2.1-.1-3.2-.3-1.1-.2-2.1-.5-2.9-.9-.9-.4-1.6-.9-2.2-1.6-.6-.7-.8-1.4-.8-2.2 0-.6.2-1.2.5-1.8.3-.6.7-1.1 1.2-1.6s1-1 1.6-1.4 1.2-.7 1.7-.9c-1.1-.3-1.9-.7-2.5-1.3-.6-.6-.9-1.3-.9-2.1 0-.5.1-.9.4-1.4.3-.5.6-1 1-1.4s.9-.8 1.5-1.2c.5-.4 1.1-.7 1.7-1-1.6-.6-2.8-1.6-3.7-2.9-.9-1.4-1.4-2.9-1.4-4.6 0-1.2.2-2.3.6-3.4.4-1.1 1-2.1 1.9-3 .8-.9 1.8-1.6 3.1-2.1 1.2-.5 2.7-.8 4.4-.8.7 0 1.3.1 2 .2s1.3.3 2 .5c1.2.4 2.4.6 3.6.6.7 0 1.5-.1 2.2-.3.7-.2 1.4-.5 2.1-.9v3.3c-.4.1-1 .2-1.9.3-.9.1-1.7.1-2.4.1.6.7 1.1 1.5 1.4 2.5s.5 2 .5 2.9c0 1.1-.2 2.2-.6 3.2s-1 1.9-1.8 2.7c-.8.8-1.8 1.4-3 1.8-1.2.4-2.5.7-4.1.7-.9 0-1.6-.1-2.3-.2-1.1.5-2 1-2.6 1.5-.6.6-.9 1.1-.9 1.6s.4 1 1.1 1.3c.7.3 1.7.5 2.9.6l6.4.2c1.3 0 2.4.2 3.4.5.9.3 1.7.7 2.3 1.2s1 1 1.3 1.6c.3.6.2 1.2.2 1.9zm-3.5 1.1c0-1-.5-1.8-1.4-2.2-.9-.4-2.3-.7-4.3-.8-1.2 0-2.3 0-3.2-.1-.8 0-1.6-.1-2.2-.1h-1.1c-1.1.6-2 1.2-2.7 1.9-.7.7-1 1.4-1 2.2 0 1 .6 1.8 1.7 2.5 1.1.6 2.9 1 5.3 1 1.2 0 2.4-.1 3.5-.3 1.1-.2 2-.4 2.8-.8.8-.4 1.4-.8 1.9-1.3.5-.6.7-1.3.7-2zm-3-19.8c0-.8-.1-1.6-.4-2.5-.2-.8-.6-1.6-1.1-2.2-.5-.7-1.1-1.2-1.9-1.6-.8-.4-1.6-.6-2.6-.6-.9 0-1.7.2-2.4.5s-1.2.8-1.7 1.3c-.5.6-.8 1.2-1 1.9-.2.7-.3 1.4-.3 2.2 0 .9.1 1.8.4 2.7.3.9.7 1.6 1.2 2.3.5.7 1.1 1.2 1.9 1.6.8.4 1.6.6 2.6.6.9 0 1.6-.2 2.3-.5.7-.4 1.2-.8 1.6-1.4.4-.6.8-1.2 1-1.9.2-.7.4-1.6.4-2.4zm31.1 9.3c-.7 2.6-1.9 4.6-3.6 5.9-1.6 1.3-3.6 2-6 2-1.8 0-3.5-.4-4.8-1.1-1.4-.7-2.5-1.7-3.5-2.9-.9-1.2-1.6-2.6-2.1-4.1s-.7-3.1-.7-4.8c0-1.9.3-3.7.8-5.4.5-1.7 1.2-3.1 2.2-4.4.9-1.2 2.1-2.2 3.4-2.9 1.3-.7 2.8-1.1 4.5-1.1 1.6 0 3 .4 4.2 1.1 1.2.7 2.1 1.7 2.9 2.9.8 1.2 1.3 2.6 1.7 4.1s.6 3.1.7 4.8h-16.5c0 1.7.2 3.1.7 4.4s1.1 2.4 1.9 3.3c.8.9 1.7 1.6 2.7 2 1 .5 2.1.7 3.2.7 1.4 0 2.8-.4 4.3-1.1 1.5-.6 2.8-1.8 4-3.4zm-4.7-7.9c0-.9-.1-1.9-.3-2.9-.2-1-.5-1.9-.9-2.7-.4-.8-1-1.5-1.7-2s-1.5-.8-2.6-.8-2 .3-2.8.8c-.8.5-1.4 1.2-2 2-.5.8-1 1.7-1.3 2.7-.3 1-.5 2-.5 2.9h12.1zm-262.2 65.9c0 1.6-.2 3.2-.7 4.8-.5 1.6-1.3 3.1-2.3 4.4s-2.3 2.4-3.9 3.2c-1.6.8-3.4 1.2-5.5 1.2-2 0-3.8-.4-5.3-1.1-1.5-.8-2.7-1.7-3.7-2.9s-1.7-2.6-2.1-4.1c-.5-1.5-.7-3.1-.7-4.6 0-1.6.2-3.2.7-4.9.5-1.6 1.2-3.1 2.3-4.4 1-1.3 2.3-2.4 3.9-3.2 1.6-.8 3.4-1.2 5.5-1.2s3.8.4 5.3 1.1c1.5.8 2.7 1.8 3.7 3s1.7 2.6 2.2 4.1c.3 1.5.6 3.1.6 4.6zm-4.2 1.1c0-1.3-.2-2.6-.5-4-.4-1.4-.9-2.6-1.6-3.7s-1.6-2-2.7-2.7-2.3-1.1-3.8-1.1c-1.3 0-2.4.3-3.4 1-.9.6-1.7 1.5-2.3 2.4s-1 2.1-1.3 3.2c-.3 1.1-.4 2.3-.4 3.3 0 1.3.2 2.6.5 4 .4 1.4.9 2.6 1.6 3.7.7 1.1 1.6 2 2.7 2.7 1.1.7 2.3 1.1 3.8 1.1 1.3 0 2.4-.3 3.3-1s1.7-1.5 2.3-2.4c.6-1 1-2.1 1.3-3.2.3-1.1.5-2.2.5-3.3zm15.6-10.4v17.4c0 1.1.1 1.9.3 2.5.2.6.4 1.1.6 1.4.2.3.5.6.7.7.2.1.3.1.4.2h-8.1c.1 0 .2-.1.4-.2s.5-.3.8-.6c.3-.3.5-.8.7-1.4.2-.6.3-1.5.3-2.6v-17.4h-4.4v-2.7h4.4V243c0-3.3.7-5.8 2.1-7.7 1.4-1.9 3.3-2.8 5.7-2.8.6 0 1.1 0 1.5.1s.7.1.9.2v4.7c-.4-.8-1-1.4-1.6-1.7-.7-.3-1.3-.5-1.9-.5-.9 0-1.6.4-2.1 1.2-.5.8-.7 2.3-.7 4.3v3.4h6.3v2.7h-6.3zm42.6 13.4c0 1-.2 2-.5 3.1-.3 1-.8 1.9-1.5 2.7-1 1.2-2.2 2.1-3.9 2.8-1.6.7-3.6 1-5.9 1-1.8 0-3.4-.3-5-.8s-2.9-1.2-4.1-2v-8c.9 3 2.2 5.1 3.9 6.3 1.7 1.2 3.6 1.9 5.8 1.9.9 0 1.8-.1 2.6-.4.8-.3 1.6-.6 2.3-1.1.7-.5 1.2-1.1 1.6-1.8.4-.7.6-1.6.6-2.7 0-1.6-.4-2.9-1.2-3.9-.8-1-1.8-2-3-2.8-1.2-.8-2.5-1.6-4-2.3s-2.8-1.5-4-2.4c-1.2-.9-2.2-2-3-3.2-.8-1.2-1.2-2.7-1.2-4.5 0-1.5.3-2.8.9-3.9.6-1.2 1.4-2.1 2.4-3 1-.8 2.2-1.4 3.5-1.9 1.3-.4 2.7-.6 4.1-.6 1.5 0 2.9.2 4.3.7 1.4.5 2.5 1 3.3 1.7v7c-.7-2.4-1.8-4.1-3.3-5.2-1.5-1-3.2-1.6-5-1.6-1 0-1.9.2-2.7.5-.8.3-1.5.8-2 1.3s-1 1.2-1.3 1.9c-.3.7-.5 1.4-.5 2.2 0 1.4.4 2.5 1.2 3.5.8 1 1.9 1.8 3.1 2.6 1.2.8 2.6 1.5 4 2.2 1.5.7 2.8 1.6 4 2.5 1.2.9 2.2 2.1 3.1 3.4 1 1.3 1.4 2.9 1.4 4.8zm21.6 9.8v-5.3c-1 1.6-2.4 2.9-4 3.8s-3.3 1.3-5 1.3c-2 0-3.6-.6-4.9-1.9s-1.9-3.5-1.9-6.7v-12.1c0-1.2-.1-2.1-.3-2.7-.2-.6-.5-1.1-.8-1.4-.3-.3-.6-.5-1-.6-.3-.1-.5-.2-.7-.2h6.7v16.5c0 2.1.4 3.7 1.3 4.7s2 1.5 3.3 1.5c.9 0 1.8-.2 2.6-.7.9-.4 1.6-1 2.3-1.7.7-.7 1.2-1.5 1.6-2.3.4-.9.6-1.7.6-2.6v-10.8c0-1.1-.1-1.9-.3-2.5-.2-.6-.4-1-.7-1.3-.2-.3-.5-.5-.7-.6-.2-.1-.4-.2-.5-.2h6.1v18.5c0 .9.1 1.7.2 2.2.1.5.3 1 .5 1.3.2.3.5.5.8.6.3.1.7.2 1.1.2h.5l-6.8 3zm25.9-20.6c-.5-.7-1-1.2-1.7-1.7-.7-.4-1.4-.7-2.2-.7-.8 0-1.6.2-2.3.7-.7.5-1.4 1.2-2 2-.6.9-1.1 1.9-1.4 3.1-.4 1.2-.5 2.5-.5 4v7.4c0 1 .1 1.8.3 2.4.2.6.4 1.1.6 1.4s.5.5.7.7c.2.1.3.1.4.2h-8c.1 0 .2-.1.4-.2s.5-.3.7-.6c.2-.3.5-.8.7-1.4.2-.6.3-1.4.3-2.5v-14.2c0-.9-.1-1.6-.2-2.2-.1-.5-.3-1-.5-1.2-.2-.3-.5-.5-.7-.6-.3-.1-.6-.2-1-.2h-.5l6.6-2.9v6.7c.2-.8.6-1.6 1.2-2.3.5-.8 1.1-1.5 1.8-2.1.7-.6 1.5-1.1 2.3-1.5.8-.4 1.7-.6 2.7-.6.7 0 1.5.2 2.3.6v5.7zm25.1 21.8c0 1-.3 2-.8 2.9-.6 1-1.4 1.8-2.6 2.6-1.2.8-2.6 1.4-4.3 1.9-1.7.5-3.8.7-6.1.7-1.1 0-2.1-.1-3.2-.3-1.1-.2-2.1-.5-2.9-.9-.9-.4-1.6-.9-2.2-1.6-.5-.6-.8-1.4-.8-2.2 0-.6.2-1.2.5-1.8.3-.6.7-1.1 1.2-1.6s1-1 1.6-1.4 1.2-.7 1.7-.9c-1.1-.3-1.9-.7-2.5-1.3s-.9-1.3-.9-2.1c0-.5.1-.9.4-1.4s.6-1 1-1.4.9-.8 1.5-1.2c.5-.4 1.1-.7 1.7-1-1.6-.6-2.8-1.6-3.7-2.9-.9-1.4-1.4-2.9-1.4-4.6 0-1.2.2-2.3.6-3.4.4-1.1 1-2.1 1.9-3 .8-.9 1.8-1.6 3.1-2.1 1.2-.5 2.7-.8 4.4-.8.7 0 1.3.1 2 .2s1.3.3 2 .5c1.2.4 2.4.6 3.6.6.7 0 1.5-.1 2.2-.3.7-.2 1.4-.5 2.1-.9v3.3c-.4.1-1 .2-1.9.3-.9.1-1.7.1-2.4.1.6.7 1.1 1.5 1.4 2.5.3 1 .5 2 .5 2.9 0 1.1-.2 2.2-.6 3.2-.4 1-1 1.9-1.8 2.7-.8.8-1.8 1.4-3 1.8-1.2.4-2.5.7-4.1.7-.9 0-1.6-.1-2.3-.2-1.1.5-2 1-2.6 1.5-.6.6-.9 1.1-.9 1.6s.4 1 1.1 1.3 1.7.5 2.9.6l6.4.2c1.3 0 2.4.2 3.4.5.9.3 1.7.7 2.3 1.2s1 1 1.3 1.6c.3.6.2 1.2.2 1.9zm-3.5 1.1c0-1-.5-1.8-1.4-2.2-.9-.4-2.3-.7-4.3-.8-1.2 0-2.3 0-3.2-.1-.8 0-1.6-.1-2.2-.1h-1.1c-1.1.6-2 1.2-2.7 1.9-.7.7-1 1.4-1 2.2 0 1 .6 1.8 1.7 2.5 1.1.6 2.9 1 5.3 1 1.2 0 2.4-.1 3.5-.3 1.1-.2 2-.4 2.8-.8.8-.4 1.4-.8 1.9-1.3.5-.6.7-1.2.7-2zm-3-19.8c0-.8-.1-1.6-.4-2.5-.2-.8-.6-1.6-1.1-2.2-.5-.7-1.1-1.2-1.9-1.6s-1.6-.6-2.6-.6c-.9 0-1.7.2-2.4.5s-1.2.8-1.7 1.3c-.5.6-.8 1.2-1 1.9-.2.7-.3 1.4-.3 2.2 0 .9.1 1.8.4 2.7.3.9.7 1.6 1.2 2.3.5.7 1.1 1.2 1.9 1.6s1.6.6 2.6.6c.9 0 1.6-.2 2.3-.5.7-.4 1.2-.8 1.6-1.4.4-.6.8-1.2 1-1.9.2-.7.4-1.6.4-2.4zm31.1 9.3c-.7 2.6-1.9 4.6-3.6 5.9-1.6 1.3-3.6 2-6 2-1.8 0-3.5-.4-4.8-1.1-1.3-.7-2.5-1.7-3.5-2.9-.9-1.2-1.6-2.6-2.1-4.1s-.7-3.1-.7-4.8c0-1.9.3-3.7.8-5.4.5-1.7 1.2-3.1 2.2-4.4.9-1.2 2.1-2.2 3.4-2.9 1.3-.7 2.8-1.1 4.5-1.1 1.6 0 3 .4 4.2 1.1 1.2.7 2.1 1.7 2.9 2.9.8 1.2 1.3 2.6 1.7 4.1s.6 3.1.7 4.8H1036c0 1.7.2 3.1.7 4.4s1.1 2.4 1.9 3.3 1.7 1.6 2.7 2c1 .5 2.1.7 3.2.7 1.4 0 2.8-.4 4.3-1.1 1.4-.6 2.7-1.8 3.9-3.4zm-4.7-7.9c0-.9-.1-1.9-.3-2.9-.2-1-.5-1.9-.9-2.7-.4-.8-1-1.5-1.7-2s-1.5-.8-2.6-.8-2 .3-2.8.8c-.8.5-1.4 1.2-2 2-.5.8-1 1.7-1.3 2.7-.3 1-.5 2-.5 2.9h12.1zm32.6 2.2c0 1.6-.2 3.2-.7 4.8-.5 1.6-1.3 3.1-2.3 4.4s-2.3 2.4-3.9 3.2c-1.6.8-3.4 1.2-5.5 1.2-2 0-3.8-.4-5.3-1.1-1.5-.8-2.7-1.7-3.7-2.9s-1.7-2.6-2.1-4.1c-.5-1.5-.7-3.1-.7-4.6 0-1.6.2-3.2.7-4.9.5-1.6 1.2-3.1 2.3-4.4 1-1.3 2.3-2.4 3.9-3.2 1.6-.8 3.4-1.2 5.5-1.2s3.8.4 5.3 1.1c1.5.8 2.7 1.8 3.7 3s1.7 2.6 2.2 4.1c.4 1.5.6 3.1.6 4.6zm-4.2 1.1c0-1.3-.2-2.6-.5-4-.4-1.4-.9-2.6-1.6-3.7s-1.6-2-2.7-2.7-2.3-1.1-3.8-1.1c-1.3 0-2.4.3-3.4 1-.9.6-1.7 1.5-2.3 2.4s-1 2.1-1.3 3.2c-.3 1.1-.4 2.3-.4 3.3 0 1.3.2 2.6.5 4 .4 1.4.9 2.6 1.6 3.7.7 1.1 1.6 2 2.7 2.7 1.1.7 2.3 1.1 3.8 1.1 1.3 0 2.4-.3 3.3-1s1.7-1.5 2.3-2.4c.6-1 1-2.1 1.3-3.2.4-1.1.5-2.2.5-3.3zm30.1 7.2c0 1 .1 1.8.3 2.4.2.6.4 1.1.6 1.4.2.3.5.5.7.6.2.1.3.2.4.2h-7.9c.1 0 .2-.1.4-.2s.4-.3.7-.6c.2-.3.4-.8.6-1.4.2-.6.3-1.4.3-2.4v-11.9c0-2.2-.4-3.8-1.3-4.8s-2-1.5-3.3-1.5c-.8 0-1.7.2-2.5.6-.8.4-1.6.9-2.3 1.5-.7.6-1.2 1.3-1.7 2.2-.4.8-.6 1.7-.6 2.6v11.4c0 1 .1 1.8.3 2.4.2.6.4 1 .6 1.4.2.3.5.5.7.6.2.1.3.2.4.2h-8c.1 0 .2-.1.4-.2s.5-.3.7-.6c.2-.3.5-.8.7-1.4.2-.6.3-1.4.3-2.4V251c0-1-.1-1.9-.2-2.5s-.3-1.1-.5-1.5c-.2-.3-.5-.6-.8-.7-.3-.1-.7-.2-1.1-.2h-.6l7-3v5c.4-.7 1-1.3 1.7-1.9.7-.6 1.5-1.1 2.3-1.5.8-.4 1.6-.8 2.5-1s1.7-.4 2.5-.4 1.7.1 2.5.4c.8.3 1.6.7 2.2 1.4.6.7 1.1 1.5 1.5 2.5s.6 2.3.6 3.9v13h-.1zm22.1-1.9c0 2.2-.8 4-2.4 5.3s-3.7 2-6.5 2c-1.4 0-2.8-.2-4-.6-1.3-.4-2.3-.9-3.1-1.5v-6.2c.8 2.1 1.8 3.6 3 4.5 1.2.9 2.6 1.3 4.1 1.3.6 0 1.2-.1 1.8-.2s1.2-.3 1.7-.6.9-.7 1.3-1.1c.3-.5.5-1.1.5-1.8s-.2-1.3-.5-1.8-.7-1-1.3-1.5c-.6-.4-1.2-.9-2-1.3s-1.6-.9-2.5-1.4-1.7-.9-2.4-1.4c-.7-.5-1.3-1-1.9-1.5-.5-.5-.9-1.2-1.2-1.9-.3-.7-.4-1.5-.4-2.4 0-1.1.2-2 .6-2.9.4-.9.9-1.7 1.7-2.3.7-.7 1.6-1.2 2.5-1.5 1-.4 2-.5 3.2-.5 2.4 0 4.5.6 6.3 1.7v5.4c-1.5-3.2-3.6-4.7-6.3-4.7-1.2 0-2.3.3-3.2 1s-1.4 1.6-1.4 2.7c0 .5.1 1 .2 1.4.1.4.4.8.8 1.2.4.4 1 .8 1.6 1.2.7.4 1.6.9 2.7 1.5 1 .5 1.9 1 2.8 1.5.9.5 1.6 1 2.2 1.6.6.6 1.1 1.2 1.5 2 .4 1 .6 1.8.6 2.8zm-237.3 63.8h-7.1c.2 0 .9-.2.9-1.2 0-.3-.2-1.1-.6-1.9h-5.6c-.2.7-.5 1.6-.5 1.8 0 1 .7 1.3.9 1.3h-5.8c.2 0 1.2-.4 2.2-3.1l4.7-12h3.4l5 12.1c1.2 2.6 2.3 3 2.5 3zm-11.5-5.5h3.7l-1.9-4.9-1.8 4.9zm19.2 5.5h-7c.2 0 1.4-.3 1.4-3.1V314c0-2.4-1.3-2.7-1.6-2.7h7.6c4.8 0 8 3 8 7.4 0 3.8-2.4 7.7-8.4 7.7zm-.6-12.6h-1.1v10h1.8c2.7 0 4.1-2.3 4.1-4.9 0-2.8-1.5-5.1-4.8-5.1zm20.4-2.5h6c-.2 0-1.2.3-2.3 3.1l-4.7 12h-3l-4.9-12.1c-1.1-2.6-2.1-2.9-2.3-3h7.1c-.2 0-1.1.2-1.1 1.1 0 .3.2.7.4 1.2l2.8 7 2.7-7.1c.2-.5.3-.8.3-1.1-.1-.9-.8-1.1-1-1.1zm21.4 15.1h-7.1c.2 0 .9-.2.9-1.2 0-.3-.2-1.1-.6-1.9h-5.6c-.2.7-.5 1.6-.5 1.8 0 1 .7 1.3.9 1.3h-5.8c.2 0 1.2-.4 2.2-3.1l4.7-12h3.4l5 12.1c1.3 2.6 2.3 3 2.5 3zm-11.4-5.5h3.7l-1.9-4.9-1.8 4.9zm22-9.6h5.6c-.2 0-1.2.2-1.2 2.7v12.4h-3.1s-.6-2-2.8-4.6l-4-4.7v6.6c0 2.3 1.2 2.6 1.4 2.7H941c.2 0 1.2-.3 1.2-2.7v-9.5c0-1.8-2.3-2.9-2.3-2.9h5.8l6.3 7.6v-5c.1-2.3-1-2.5-1.2-2.6zm14.9 15.4c-5.3 0-7.7-3.6-7.7-7.6 0-4.3 2.8-8.2 8.3-8.2 2.5 0 3.6.6 4.1.9v4.7c-.7-1.4-2.1-2.8-4.3-2.8-2.1 0-4 1.7-4 4.9 0 3.3 1.8 5.1 4.1 5.1 1.6 0 3.4-.9 4.5-2.4v3.2c-1.1 1.3-3 2.2-5 2.2zm17.5-.3h-11c.2 0 1.4-.3 1.4-3V314c0-2.4-1.4-2.7-1.6-2.7h11v4.7c-.3-1.1-1-2.1-2.9-2.1h-2.6v3.7h2.4c1.6 0 1.8-.6 1.9-.8v4.1s-.1-.8-1.8-.8h-2.4v3.7h2.9c1.9 0 2.7-.6 3.6-2.2l-.9 4.8zm9.2 0h-7.1c.2 0 1.4-.3 1.4-3.1V314c0-2.4-1.3-2.7-1.6-2.7h7.6c4.8 0 8 3 8 7.4 0 3.8-2.4 7.7-8.3 7.7zm-.7-12.6h-1.1v10h1.8c2.7 0 4.1-2.3 4.1-4.9 0-2.8-1.5-5.1-4.8-5.1zm20.4 12.9c-1.8 0-3.6-.4-4.7-1.1v-4.8c1.2 2.4 3 3.1 4.7 3.1 1.3 0 2.3-.5 2.3-1.4 0-1.4-2.2-1.9-4.1-2.9-1.5-.8-2.9-1.9-2.9-3.9 0-3.1 2.6-4.7 5.8-4.7 1.5 0 3 .4 3.9 1v4c-.7-1.3-2.5-2.4-4.1-2.4-1.4 0-1.9.6-1.9 1.3 0 1 1.3 1.6 2.8 2.2 2 .9 4.3 2 4.3 4.8 0 3.3-2.8 4.8-6.1 4.8zm16.7-15.4h6.1c-.2 0-1.3.2-1.3 2.8v6.7c0 4.4-2.6 5.9-6.1 5.9-4.6 0-6.6-1.9-6.6-5.6v-7c0-2.4-1.1-2.7-1.3-2.8h6.5c-.2 0-1.2.2-1.2 2.7v6.9c0 2.4.9 3.1 2.7 3.1 1.8 0 2.6-.9 2.6-3.1v-6.8c0-2.4-1.1-2.7-1.4-2.8zm21.6 15.1h-5.3l-2.2-4.3c-.5-1.1-.8-1.2-1.3-1.2h-.2v2.8c0 2.4 1 2.7 1.2 2.7h-6.3c.2 0 1.3-.3 1.3-2.7v-9.5c0-2.5-1.3-2.8-1.5-2.9h7.5c3.9 0 5.6 2.3 5.6 4.5 0 2.3-1.5 3.8-3.5 4.2.4.3.8.8 1.1 1.4l1.7 3c.8 1.7 1.7 2 1.9 2zm-7.7-12.6h-1.4v4.4h1.5c1.7 0 2.4-1.1 2.4-2.3-.1-1.1-.9-2.1-2.5-2.1zm16.7 5.8h6.5c-.2 0-1.3.3-1.3 2.2v4.1c-1.6.6-4 .8-5.8.8-5.2 0-7.8-3.7-7.8-7.5 0-4.1 2.9-8.2 8.9-8.2 2.5 0 4 .7 4.4.9v4.5c-.8-1.4-2.4-2.6-4.5-2.6-2.6 0-4.7 1.9-4.7 5.1 0 3 1.9 5.1 4.2 5.1.6 0 1.1-.1 1.4-.2v-1.9c.1-2-1.1-2.2-1.3-2.3zm13.8 6.8h-6.4c.2 0 1.2-.3 1.2-2.5V314c0-2.3-1.1-2.6-1.2-2.6h6.4c-.1 0-1.2.3-1.2 2.6v9.9c0 2.2 1 2.5 1.2 2.5zm9.3.3c-5.3 0-7.7-3.6-7.7-7.6 0-4.3 2.8-8.2 8.3-8.2 2.5 0 3.6.6 4.1.9v4.7c-.7-1.4-2.1-2.8-4.3-2.8-2.1 0-4 1.7-4 4.9 0 3.3 1.8 5.1 4.1 5.1 1.6 0 3.4-.9 4.5-2.4v3.2c-1.1 1.3-3 2.2-5 2.2zm23.5-.3h-7.1c.2 0 .9-.2.9-1.2 0-.3-.2-1.1-.6-1.9h-5.6c-.2.7-.5 1.6-.5 1.8 0 1 .7 1.3.9 1.3h-5.8c.2 0 1.2-.4 2.2-3.1l4.7-12h3.4l5 12.1c1.2 2.6 2.3 3 2.5 3zm-11.5-5.5h3.7l-1.9-4.9-1.8 4.9zm23 5.5h-10.9c.2 0 1.1-.3 1.1-3.1v-9.2c0-2.4-1-2.7-1.2-2.8h6.3c-.2 0-1.2.2-1.2 2.8v9.7h2.9c2 0 2.7-.1 3.7-1.8l-.7 4.4zm14.7.3c-5.3 0-7.7-3.6-7.7-7.6 0-4.3 2.8-8.2 8.3-8.2 2.5 0 3.6.6 4.1.9v4.7c-.7-1.4-2.1-2.8-4.3-2.8-2.1 0-4 1.7-4 4.9 0 3.3 1.8 5.1 4.1 5.1 1.6 0 3.4-.9 4.5-2.4v3.2c-1 1.3-3 2.2-5 2.2zm23.5-.3h-7.1c.2 0 .9-.2.9-1.2 0-.3-.2-1.1-.6-1.9h-5.6c-.2.7-.5 1.6-.5 1.8 0 1 .7 1.3.9 1.3h-5.7c.2 0 1.2-.4 2.2-3.1l4.7-12h3.4l5 12.1c1.1 2.6 2.2 3 2.4 3zm-11.5-5.5h3.7l-1.9-4.9-1.8 4.9zm26.3 5.5h-5.3l-2.2-4.3c-.5-1.1-.8-1.2-1.3-1.2h-.2v2.8c0 2.4 1 2.7 1.2 2.7h-6.3c.2 0 1.3-.3 1.3-2.7v-9.5c0-2.5-1.3-2.8-1.5-2.9h7.5c3.9 0 5.6 2.3 5.6 4.5 0 2.3-1.5 3.8-3.5 4.2.4.3.8.8 1.1 1.4l1.7 3c.8 1.7 1.7 2 1.9 2zm-7.7-12.6h-1.4v4.4h1.5c1.7 0 2.4-1.1 2.4-2.3-.1-1.1-.9-2.1-2.5-2.1zm19.9 12.6h-11c.2 0 1.4-.3 1.4-3V314c0-2.4-1.4-2.7-1.6-2.7h11.1v4.7c-.3-1.1-1-2.1-2.9-2.1h-2.7v3.7h2.4c1.6 0 1.8-.6 1.9-.8v4.1s-.1-.8-1.8-.8h-2.5v3.7h2.9c1.9 0 2.7-.6 3.6-2.2l-.8 4.8z"/></svg>