<svg width="200" height="118" viewBox="0 0 200 118" xmlns="http://www.w3.org/2000/svg" xmlns:xlink="http://www.w3.org/1999/xlink"><title>Page 1</title><defs><path id="a" d="M0 .374h199.187v116.7H0V.374z"/><path id="c" d="M0 .374h199.187v116.7H0V.374z"/></defs><g fill="none" fill-rule="evenodd"><path d="M41.386 54.932c0-4.5-1.355-8.14-4.064-10.922-2.71-2.78-6.384-4.167-11.028-4.167H14.582v28.49H27.35c2.813 0 5.135-.403 6.966-1.212 1.827-.803 3.27-1.842 4.326-3.11a10.492 10.492 0 0 0 2.163-4.273c.385-1.582.58-3.182.58-4.802m-3.482-34.24c0-1.892-.353-3.59-1.056-5.095A11.573 11.573 0 0 0 34 11.757a12.742 12.742 0 0 0-4.17-2.415 14.92 14.92 0 0 0-5.013-.842H14.582v26.07h10.974c3.59 0 6.543-1.226 8.865-3.678 2.326-2.453 3.486-5.85 3.486-10.198m12.56 34.632c0 2.33-.424 4.584-1.268 6.768a17.07 17.07 0 0 1-3.746 5.816c-1.655 1.69-3.73 3.063-6.23 4.122-2.495 1.055-5.396 1.584-8.703 1.584H1.39c.212 0 .53-.106.95-.317.563-.213 1.107-.668 1.636-1.374.527-.7 1-1.722 1.424-3.06.423-1.335.634-3.128.634-5.38V13.25c0-2.18-.23-3.923-.686-5.225-.458-1.3-.97-2.285-1.53-2.953-.564-.67-1.127-1.11-1.69-1.322a18.07 18.07 0 0 0-1.055-.42H27.56c3.378 0 6.28.475 8.708 1.423 2.426.948 4.43 2.212 6.015 3.79 1.582 1.58 2.743 3.37 3.48 5.373a17.73 17.73 0 0 1 .16 11.904 17.49 17.49 0 0 1-2.69 5.053 15.923 15.923 0 0 1-4.17 3.794 14.836 14.836 0 0 1-5.17 2.052c2.533.35 4.818 1.055 6.86 2.11 2.04 1.128 3.78 2.538 5.223 4.23a18.604 18.604 0 0 1 3.325 5.71 18.925 18.925 0 0 1 1.165 6.55m65.74-16.798c0-9.55-2.357-16.924-7.07-22.12-4.715-5.2-11.785-7.796-21.21-7.796h-12.14v59.727h14.88c4.573 0 8.477-.876 11.714-2.633 3.233-1.75 5.87-4.05 7.913-6.894 2.04-2.846 3.535-6.04 4.484-9.59a41.132 41.132 0 0 0 1.424-10.69m9.287-.688c0 4.856-.738 9.446-2.216 13.773-1.477 4.328-3.692 8.126-6.646 11.398-2.957 3.27-6.667 5.856-11.134 7.756-4.468 1.9-9.727 2.85-15.777 2.85h-27.33c.212 0 .53-.106.95-.317.562-.28 1.143-.792 1.74-1.532.598-.736 1.11-1.793 1.53-3.164.424-1.373.634-3.255.634-5.647v-49.6c0-2.177-.228-3.92-.686-5.222-.455-1.297-.966-2.283-1.53-2.953-.56-.668-1.124-1.123-1.686-1.372-.564-.246-.986-.403-1.265-.477h27.96c5.556 0 10.535.846 14.932 2.535 4.396 1.688 8.107 4.062 11.133 7.124 3.024 3.06 5.346 6.7 6.964 10.922 1.62 4.22 2.43 8.862 2.43 13.927" fill="#9B9B9B"/><mask id="b" fill="#fff"><use xlink:href="#a"/></mask><path d="M162.847 17.68l-11.502 28.915h23.004L162.843 17.68zm26.382 43.796c1.05 2.674 2.09 4.8 3.11 6.384 1.02 1.582 1.967 2.795 2.85 3.64.877.845 1.597 1.41 2.16 1.69.492.21.847.35 1.057.42H179.41c.14 0 .353-.033.636-.104.35-.14.72-.352 1.106-.634.387-.28.72-.7 1.002-1.265.28-.565.422-1.335.422-2.324 0-.77-.157-1.65-.474-2.636a57.344 57.344 0 0 0-1.32-3.588l-4.324-11.19h-27.12l-4.22 10.762a41.003 41.003 0 0 0-1.162 3.325c-.283.95-.422 1.81-.422 2.585 0 1.056.174 1.917.527 2.586.35.67.757 1.18 1.215 1.53.457.353.898.6 1.32.74.21.14.422.21.633.21h-16.78c.14 0 .42-.106.843-.318.564-.28 1.25-.826 2.058-1.635.81-.81 1.725-2.023 2.746-3.642 1.018-1.618 2.127-3.833 3.323-6.65L164.43.375l24.8 61.1z" fill="#9B9B9B" mask="url(#b)"/><path d="M6.034 103.78c1.64 0 2.66-.726 2.66-1.93v-.032c0-1.175-.99-1.857-2.876-1.857H2.4v3.82h3.634zm-.433-4.9c1.47 0 2.49-.665 2.49-1.932v-.03c0-1.067-.85-1.763-2.393-1.763H2.4v3.725h3.2zM1.2 94.06H5.8c1.24 0 2.213.353 2.83.955.45.467.697 1.037.697 1.733v.03c0 1.408-.865 2.135-1.716 2.504 1.287.388 2.32 1.13 2.32 2.613v.03c0 1.856-1.56 2.953-3.924 2.953h-4.81v-10.82zm10.95 2.826h1.19v2.086c.59-1.328 1.748-2.286 3.264-2.224v1.283h-.092c-1.747 0-3.17 1.256-3.17 3.667v3.184h-1.19V96.89z" fill="#9B9B9B"/><mask id="d" fill="#fff"><use xlink:href="#c"/></mask><path d="M18.512 96.886h1.19v7.992h-1.19v-7.992zm-.078-3.06h1.36v1.314h-1.36v-1.314zm4.45 8.934v-4.823H21.77v-1.05h1.113v-2.412h1.19v2.412h2.535v1.05h-2.535v4.668c0 .974.54 1.33 1.345 1.33.402 0 .742-.076 1.16-.278v1.02a3 3 0 0 1-1.438.34c-1.283 0-2.257-.634-2.257-2.257m5.932-5.874h1.19v7.992h-1.19v-7.992zm-.078-3.06h1.36v1.314h-1.36v-1.314zm3.367 10.034l.603-.852c.866.65 1.825 1.02 2.766 1.02.96 0 1.654-.495 1.654-1.27v-.028c0-.803-.94-1.114-1.994-1.408-1.252-.355-2.642-.787-2.642-2.255v-.033c0-1.375 1.147-2.286 2.725-2.286.974 0 2.055.34 2.874.88l-.54.897c-.744-.48-1.594-.774-2.366-.774-.942 0-1.546.5-1.546 1.165v.03c0 .757.99 1.05 2.057 1.375 1.237.37 2.567.85 2.567 2.287v.032c0 1.512-1.25 2.394-2.844 2.394-1.144 0-2.412-.45-3.308-1.174m8.353-10.265h1.193v4.683c.525-.865 1.36-1.56 2.736-1.56 1.93 0 3.06 1.298 3.06 3.2v4.96h-1.19v-4.668c0-1.485-.804-2.41-2.21-2.41-1.378 0-2.397 1-2.397 2.502v4.574h-1.19V93.594zM58.57 103.75c2.737 0 4.483-1.855 4.483-4.25v-.03c0-2.396-1.745-4.28-4.482-4.28h-2.533v8.56h2.534zm-3.756-9.69h3.758c3.4 0 5.752 2.334 5.752 5.38v.03c0 3.044-2.353 5.41-5.753 5.41h-3.76V94.06zm17.74 6.35c-.14-1.45-.975-2.687-2.55-2.687-1.378 0-2.428 1.143-2.6 2.69h5.15zm-2.336 3.62c1.098 0 1.872-.45 2.52-1.13l.742.665c-.803.896-1.777 1.5-3.293 1.5-2.193 0-3.987-1.685-3.987-4.173 0-2.32 1.623-4.172 3.834-4.172 2.365 0 3.726 1.886 3.726 4.234 0 .11 0 .234-.017.42H67.4c.172 1.683 1.41 2.66 2.814 2.66zm5.62-7.143h1.19v1.39c.526-.865 1.362-1.56 2.737-1.56 1.934 0 3.06 1.3 3.06 3.2v4.962h-1.19v-4.67c0-1.483-.8-2.41-2.21-2.41-1.375 0-2.394 1.003-2.394 2.504v4.574h-1.19v-7.993zm9.934 5.874v-4.82h-1.114v-1.05h1.114v-2.412h1.19v2.412h2.535v1.05H86.96v4.668c0 .974.54 1.33 1.345 1.33.4 0 .74-.076 1.16-.278v1.02c-.42.216-.866.34-1.438.34-1.283 0-2.257-.634-2.257-2.257m11.092-.82v-.74a8.124 8.124 0 0 0-2.333-.34c-1.485 0-2.336.65-2.336 1.607v.032c0 1.004.93 1.59 2.01 1.59 1.468 0 2.658-.88 2.658-2.15m-5.87.62v-.032c0-1.713 1.39-2.61 3.416-2.61 1.02 0 1.73.14 2.44.34v-.247c0-1.423-.866-2.164-2.365-2.164-.942 0-1.684.23-2.427.57l-.354-.973c.88-.402 1.73-.68 2.906-.68 1.128 0 2.01.31 2.582.88.556.558.834 1.33.834 2.35v4.886H96.85v-1.194c-.56.71-1.47 1.36-2.876 1.36-1.5 0-2.984-.85-2.984-2.488m9.654-8.966h1.19v11.283h-1.19V93.594zm15.806 7.325l-2.457-5.52-2.473 5.52h4.93zm-3.015-6.94h1.145l4.93 10.9h-1.314l-1.266-2.86h-5.89l-1.283 2.86h-1.252l4.93-10.9zm7.335 9.88l.603-.852c.865.65 1.824 1.02 2.766 1.02.955 0 1.65-.495 1.65-1.27v-.028c0-.804-.94-1.115-1.994-1.41-1.253-.354-2.643-.786-2.643-2.254v-.033c0-1.375 1.143-2.286 2.72-2.286.974 0 2.055.34 2.875.88l-.543.897c-.74-.48-1.59-.774-2.364-.774-.942 0-1.545.498-1.545 1.163v.03c0 .757.99 1.05 2.057 1.375 1.236.372 2.566.852 2.566 2.288v.032c0 1.514-1.25 2.396-2.845 2.396-1.143 0-2.41-.45-3.307-1.174m7.54 0l.603-.852c.867.65 1.826 1.02 2.77 1.02.96 0 1.65-.495 1.65-1.27v-.028c0-.803-.94-1.114-1.99-1.408-1.253-.355-2.643-.787-2.643-2.255v-.033c0-1.375 1.143-2.286 2.72-2.286.974 0 2.055.34 2.875.88l-.54.897c-.74-.48-1.593-.774-2.365-.774-.943 0-1.546.5-1.546 1.165v.03c0 .757.99 1.05 2.057 1.375 1.235.37 2.565.85 2.565 2.287v.032c0 1.512-1.25 2.394-2.844 2.394-1.144 0-2.41-.45-3.308-1.174m14.97-2.94v-.03c0-1.714-1.282-3.12-2.967-3.12-1.73 0-2.922 1.406-2.922 3.09v.03c0 1.717 1.27 3.108 2.956 3.108 1.73 0 2.937-1.39 2.937-3.076m-7.11 0v-.03c0-2.256 1.763-4.173 4.174-4.173 2.394 0 4.157 1.884 4.157 4.14v.03c0 2.258-1.777 4.175-4.19 4.175-2.395 0-4.142-1.886-4.142-4.143m9.976 0v-.03c0-2.257 1.764-4.174 4.1-4.174 1.513 0 2.456.633 3.197 1.422l-.788.832c-.635-.663-1.346-1.205-2.427-1.205-1.623 0-2.86 1.375-2.86 3.09v.03c0 1.73 1.268 3.107 2.936 3.107 1.02 0 1.807-.51 2.44-1.19l.76.71c-.804.897-1.763 1.547-3.26 1.547-2.336 0-4.1-1.9-4.1-4.142m9.425-4.033h1.19v7.992h-1.19v-7.993zm-.077-3.06h1.36v1.314h-1.36v-1.314zm9.303 8.114v-.74a8.145 8.145 0 0 0-2.335-.34c-1.482 0-2.332.65-2.332 1.606v.032c0 1.004.926 1.59 2.007 1.59 1.47 0 2.66-.88 2.66-2.15m-5.875.62v-.032c0-1.713 1.39-2.61 3.416-2.61 1.02 0 1.73.14 2.44.34v-.247c0-1.424-.864-2.165-2.364-2.165-.943 0-1.684.232-2.427.572l-.357-.974c.882-.402 1.732-.68 2.906-.68 1.127 0 2.01.31 2.58.88.557.558.835 1.33.835 2.35v4.886h-1.175v-1.195c-.556.712-1.47 1.36-2.874 1.36-1.5 0-2.982-.848-2.982-2.487m9.888.2v-4.824H167.7v-1.05h1.113v-2.412H170v2.412h2.536v1.05H170v4.668c0 .974.54 1.33 1.345 1.33.402 0 .742-.076 1.16-.278v1.02a3 3 0 0 1-1.438.34c-1.283 0-2.257-.634-2.257-2.257m5.93-5.875h1.192v7.992h-1.19v-7.992zm-.077-3.06h1.36v1.314h-1.36V93.82zm10.65 7.094v-.03c0-1.716-1.284-3.123-2.97-3.123-1.73 0-2.92 1.407-2.92 3.09v.032c0 1.715 1.27 3.106 2.952 3.106 1.73 0 2.937-1.39 2.937-3.075m-7.11 0v-.03c0-2.256 1.762-4.173 4.173-4.173 2.395 0 4.158 1.886 4.158 4.143v.03c0 2.257-1.777 4.174-4.19 4.174-2.395 0-4.142-1.887-4.142-4.144m10.476-4.033h1.19v1.39c.526-.865 1.362-1.56 2.737-1.56 1.934 0 3.06 1.3 3.06 3.2v4.962h-1.19v-4.67c0-1.482-.8-2.41-2.21-2.41-1.375 0-2.394 1.004-2.394 2.505v4.574h-1.19V96.88zM199.19 84.55H0v-1.626h199.187v1.626zm0 32.52H0v-1.626h199.187v1.626z" fill="#9B9B9B" mask="url(#d)"/></g></svg>