<svg width="111" height="187" viewBox="0 0 111 187" xmlns="http://www.w3.org/2000/svg"><title>Page 1</title><g fill="none" fill-rule="evenodd"><path d="M56.404 1.166S4.33-5.284 5.207 72.996c0 0 3.803 1.466 3.803 10.555 0 0-.878 7.92 2.34 4.4 3.218-3.52.878-19.935.878-19.935s54.707 7.33 79.867-21.696c0 0 9.362 23.16 7.606 41.34 0 0 2.93 3.224 2.93-6.158s3.803-9.09 3.803-9.09S115.208-.885 56.405 1.167z" stroke="#F7F7F7" stroke-width="2"/><path d="M5.207 72.996c-6.144-.88-3.218 7.623-3.218 7.623s2.92 7.912 4.68 19.135c1.752 11.223 7.02 4.316 7.02 4.316s1.61 34.157 19.89 46.03l8.924 6.89s5.85 4.69 12.434 3.81m43.005-57.022s6.194 8.502 8.948-5.278c2.755-13.78 5.388-22.282-.463-26.093M48.797 87.07s6.73 19.643-3.51 27.852c0 0-6.023 4.69 2.84 7.916m-11.033 1.466s4.195-1.76 6.193-5.57m-.78-28.594c-5.56-13.2-19.894-2.484-19.894-2.484" stroke="#F7F7F7" stroke-width="2"/><path d="M35.654 85.394a1.988 1.988 0 1 1-3.973 0 1.987 1.987 0 0 1 3.97 0zm-13.04 1.99s9.215 6.135 19.893 2.324m-20.625-6.155s15.36-8.46 23.405 3.83" stroke="#F7F7F7" stroke-width="2"/><path d="M17.304 77.556c4.247-2.803 10.033-3.076 14.75-1.56 2.744.882 5.525 1.863 8.105 3.16.48.243 1.353.706 1.562.933.447.483 2.065-.16 1.565-.7-.55-.6-1.466-.966-2.17-1.305-3.018-1.453-6.334-2.763-9.583-3.548-4.988-1.205-10.96-.475-15.316 2.4-.96.63.476 1.014 1.082.615" fill="#F7F7F7"/><path d="M9.595 106.177c3.51 23.36-4.4 37.037-4.4 37.037s-4.377 8.063 1.62 6.743c5.998-1.32 24.868-1.214 24.868-1.214m66.445-44.67s-1.61 34.157-19.894 46.03l-8.923 6.89s-5.85 4.69-12.43 3.81" stroke="#F7F7F7" stroke-width="2"/><path d="M102.223 106.177c-3.51 23.36 4.4 37.037 4.4 37.037s4.377 8.063-1.62 6.743c-5.998-1.32-24.867-1.214-24.867-1.214M49.382 121.52s.245-2.054 1.585-1.32c1.34.732.17 3.957 3.974 4.104m0 7.502c-.436-1.586-2.776-1.492-2.776-1.492-4.68-.733-13.897 3.08-13.897 3.08s5.266 8.354 16.676 7.475m0-5.295s-3.07.894-16.675-2.184m22.67-46.32s-6.73 19.642 3.51 27.85c0 0 6.023 4.69-2.84 7.917m11.033 1.466s-4.194-1.76-6.192-5.57m.78-28.594c5.56-13.2 19.895-2.485 19.895-2.485" stroke="#F7F7F7" stroke-width="2"/><path d="M74.08 85.394a1.986 1.986 0 0 0 3.972 0 1.986 1.986 0 1 0-3.97 0zm13.042 1.99s-9.216 6.135-19.894 2.324m20.625-6.155s-15.36-8.46-23.404 3.83" stroke="#F7F7F7" stroke-width="2"/><path d="M93.64 76.804c-4.362-2.88-10.39-3.46-15.343-2.175-3.24.835-6.553 2.1-9.56 3.58-.718.353-1.64.732-2.2 1.34-.696.758.944.85 1.383.37.054-.056-.032.005.234-.17.41-.27.847-.498 1.287-.716 2.738-1.346 5.7-2.448 8.62-3.29 4.595-1.325 10.19-.733 14.25 1.945.526.35 2.066-.4 1.33-.887" fill="#F7F7F7"/><path d="M60.353 121.52s-.245-2.054-1.585-1.32c-1.34.732-.17 3.957-3.973 4.104m0 7.502c.438-1.586 2.78-1.492 2.78-1.492 4.68-.733 13.895 3.08 13.895 3.08s-5.266 8.354-16.675 7.475m0-5.295s3.07.894 16.675-2.184M33.584 150.1s8.563 15.834-1.024 35.77m45.648-35.77s-8.563 15.834 1.024 35.77" stroke="#F7F7F7" stroke-width="2"/><path d="M1.293 107.84c3.035 7.713 6.62 15.242 10.39 22.614 7.105 13.894 15.222 27.806 25.974 39.212 5.135 5.45 11.172 10.61 18.388 12.982-.27-.09.31-2.83 0-2.932-6.376-2.095-11.825-6.397-16.534-11.076-5.52-5.49-10.253-11.758-14.563-18.23-7.842-11.777-14.41-24.426-20.175-37.34-1.205-2.698-2.394-5.41-3.476-8.16.33.837-.336 2.078 0 2.93" fill="#36A9E1"/><path d="M110.752 104.91c-3.035 7.71-6.62 15.24-10.39 22.613-7.105 13.894-15.222 27.805-25.974 39.212-5.135 5.448-11.172 10.61-18.388 12.98-.308.102.268 2.845 0 2.933 6.376-2.095 11.825-6.397 16.534-11.076 5.525-5.49 10.257-11.758 14.567-18.23 7.846-11.778 14.41-24.427 20.18-37.34 1.204-2.698 2.393-5.41 3.475-8.16.336-.854-.33-2.095 0-2.933" fill="#36A9E1"/></g></svg>