<svg width="250" height="83" viewBox="0 0 250 83" xmlns="http://www.w3.org/2000/svg" xmlns:xlink="http://www.w3.org/1999/xlink"><title>Page 1</title><defs><path id="a" d="M0 .475h249.338v81.753H0V.475z"/></defs><g fill="none" fill-rule="evenodd"><path d="M61.3 29.347H32.208v8.633H52.84c-1.018 12.107-11.09 17.27-20.598 17.27-12.164 0-22.778-9.57-22.778-22.985 0-13.068 10.118-23.132 22.805-23.132 9.784 0 15.55 6.24 15.55 6.24l6.047-6.26S46.11.476 31.96.476C13.94.476 0 15.684 0 32.11c0 16.097 13.113 31.793 32.42 31.793 16.98 0 29.408-11.632 29.408-28.833 0-3.628-.527-5.725-.527-5.725v.002z" fill="#4885ED"/><path d="M85.253 31.102c5.87 0 11.434 4.747 11.434 12.395 0 7.486-5.54 12.367-11.46 12.367-6.507 0-11.64-5.21-11.64-12.427 0-7.06 5.07-12.335 11.666-12.335zm-.12-8.007c-11.937 0-20.493 9.333-20.493 20.218 0 11.046 8.3 20.553 20.635 20.553 11.166 0 20.315-8.535 20.315-20.316 0-13.502-10.64-20.455-20.456-20.455z" fill="#DB3236"/><path d="M129.824 31.102c5.87 0 11.435 4.747 11.435 12.395 0 7.486-5.54 12.367-11.466 12.367-6.506 0-11.64-5.21-11.64-12.427 0-7.06 5.07-12.335 11.667-12.335zm-.118-8.007c-11.94 0-20.494 9.333-20.494 20.218 0 11.046 8.298 20.553 20.634 20.553 11.167 0 20.315-8.535 20.315-20.316 0-13.502-10.64-20.455-20.45-20.455z" fill="#F4C20D"/><path d="M174.216 31.107c5.373 0 10.89 4.588 10.89 12.422 0 7.96-5.506 12.35-11.008 12.35-5.842 0-11.278-4.747-11.278-12.278 0-7.827 5.646-12.498 11.396-12.498zm-.793-7.99c-10.958 0-19.57 9.596-19.57 20.368 0 12.27 9.985 20.408 19.38 20.408 5.812 0 8.9-2.306 11.182-4.954v4.02c0 7.03-4.27 11.242-10.717 11.242-6.226 0-9.35-4.63-10.435-7.258l-7.835 3.275c2.78 5.877 8.375 12.006 18.335 12.006 10.896 0 19.2-6.862 19.2-21.255V24.34h-8.548v3.453c-2.628-2.832-6.222-4.678-10.992-4.678z" fill="#4885ED"/><path d="M231.322 30.908c3.724 0 6.405 1.98 7.543 4.354l-18.254 7.63c-.783-5.907 4.81-11.984 10.715-11.984zm-.357-7.84c-10.336 0-19.015 8.223-19.015 20.358 0 12.84 9.674 20.456 20.008 20.456 8.625 0 13.92-4.718 17.078-8.947l-7.047-4.69c-1.83 2.84-4.89 5.613-9.99 5.613-5.73 0-8.368-3.138-10-6.178l27.334-11.342-1.42-3.324c-2.64-6.51-8.8-11.945-16.95-11.945l-.002-.006z" fill="#DB3236"/><mask id="b" fill="#fff"><use xlink:href="#a"/></mask><path d="M198.918 62.672h8.98V2.584h-8.98v60.088z" fill="#3CBA54" mask="url(#b)"/></g></svg>