<svg width="300" height="121" viewBox="0 0 300 121" xmlns="http://www.w3.org/2000/svg" xmlns:xlink="http://www.w3.org/1999/xlink"><title>Page 1</title><defs><path id="a" d="M0 .073h299.995V120.92H0"/><path id="c" d="M0 .073h299.995V120.92H0V.072z"/></defs><g fill="none" fill-rule="evenodd"><mask id="b" fill="#fff"><use xlink:href="#a"/></mask><path d="M187.985 117.944c1.962 1.942 3.546 2.933 4.753 2.975h-23.372a6.908 6.908 0 0 0 3.5-1.63c1.715-1.49 2.575-3.73 2.575-6.716 0-2.413-.87-5.768-2.604-10.06l-10.58-25.52H123.07l-2.118-5.03h39.213l-22.39-54.012-19.567 47.51L113.3 53.81 135.69.072l42.542 101.736c3.148 7.442 6.398 12.822 9.753 16.134" fill="#9B9B9B" mask="url(#b)"/><mask id="d" fill="#fff"><use xlink:href="#c"/></mask><path d="M202.338 8.078c-1.165-1.452-2.585-2.38-4.262-2.79h43.4c18.28 0 32.706 5.336 43.276 16.01 10.163 10.285 15.243 23.873 15.243 40.76 0 17.057-4.887 30.918-14.66 41.594-10.55 11.51-25.17 17.267-43.86 17.267h-43.4c1.555-.23 2.956-1.118 4.203-2.67 2.187-2.74 3.28-7.057 3.28-12.945v-84.93c0-5.54-1.072-9.64-3.22-12.3zm12.24 2.24v105.57h28.83c15.622 0 27.644-5.716 36.07-17.146 7.096-9.65 10.642-21.53 10.642-35.64 0-17.236-4.294-30.333-12.882-39.29-8.628-8.996-21.295-13.495-38-13.495h-24.66zM4.418 7.988c-1.23-1.434-2.7-2.334-4.42-2.7h23.985c-1.574.163-2.994 1-4.263 2.514-2.145 2.514-3.22 6.47-3.22 11.87v86.83c0 5.42 1.055 9.384 3.16 11.9 1.248 1.49 2.688 2.33 4.324 2.516H.184c1.615-.246 3.016-1.044 4.202-2.394 2.167-2.475 3.25-6.482 3.25-12.023V19.67c0-5.256-1.072-9.15-3.22-11.685zm41.65 104.59c0 2.96.87 5.2 2.606 6.713a6.888 6.888 0 0 0 3.497 1.63h-23.4c1.228-.043 2.814-1.034 4.756-2.976 3.354-3.312 6.614-8.692 9.784-16.135L85.847.07l42.358 101.736c2.966 7.158 6.207 12.42 9.723 15.796 1.19 1.153 2.3 2.013 3.325 2.577.73.4 1.42.646 2.07.74h-25.61c.797-.023 1.594-.433 2.392-1.23 1.226-1.246 1.84-3.097 1.84-5.55 0-2.884-.92-6.473-2.762-10.765l-11.102-26.38h-48.8l-10.61 25.52c-1.737 4.376-2.606 7.728-2.606 10.06zm15.304-40.61H106L83.763 17.953l-22.39 54.012z" fill="#9B9B9B" mask="url(#d)"/></g></svg>