<svg id="Layer_1" xmlns="http://www.w3.org/2000/svg" viewBox="0 0 214.7 58.2"><style>.st0{fill:#ababab}.st1{fill:#45b7e5}</style><g id="XMLID_25_"><path id="XMLID_26_" class="st0" d="M0 1.6C0 .9.6.4 1.2.4h9.9C21.7.3 29 7.6 29 17v.1c0 9.5-7.3 16.8-17.9 16.8H1.2c-.7 0-1.2-.6-1.2-1.2V1.6zm11.2 30c9.4 0 15.3-6.4 15.3-14.4v-.1c0-8-5.9-14.5-15.3-14.5H2.5v29h8.7z"/><path id="XMLID_29_" class="st0" d="M41.5 32.7V1.6c0-.7.6-1.2 1.2-1.2h21.7c.6 0 1.2.5 1.2 1.2s-.5 1.2-1.2 1.2H44V16h18.3c.6 0 1.2.5 1.2 1.2s-.5 1.2-1.2 1.2H44v13.5h20.7c.6 0 1.2.5 1.2 1.2s-.5 1.2-1.2 1.2H42.8c-.7-.4-1.3-.9-1.3-1.6z"/><path id="XMLID_31_" class="st0" d="M77.7 1.4c0-.7.6-1.2 1.2-1.2h.4c.5 0 .9.3 1.2.7l22.7 28.8V1.3c0-.7.5-1.2 1.2-1.2s1.2.5 1.2 1.2V33c0 .6-.4 1.1-1 1.1h-.2c-.5 0-.9-.3-1.2-.8L80.1 4v28.9c0 .7-.5 1.2-1.2 1.2s-1.2-.5-1.2-1.2V1.4z"/><path id="XMLID_33_" class="st0" d="M128.9 2.6h-10.8c-.6 0-1.2-.5-1.2-1.2s.5-1.2 1.2-1.2h24c.6 0 1.2.5 1.2 1.2s-.5 1.2-1.2 1.2h-10.8v30.2c0 .7-.6 1.2-1.2 1.2-.7 0-1.2-.6-1.2-1.2V2.6z"/><path id="XMLID_35_" class="st0" d="M148.3 32.3l14.4-31.1c.3-.7.8-1.2 1.7-1.2h.1c.9 0 1.3.5 1.7 1.2l14.3 31c.1.3.2.5.2.8 0 .6-.5 1.2-1.2 1.2-.6 0-1-.4-1.2-1l-3.9-8.6h-19.8l-3.9 8.7c-.2.6-.6.9-1.2.9s-1.2-.5-1.2-1.1c-.2-.2-.2-.5 0-.8zm24.8-10l-8.8-19.4-8.9 19.4h17.7z"/><path id="XMLID_38_" class="st0" d="M192.3 1.4c0-.7.6-1.2 1.2-1.2s1.2.6 1.2 1.2v30.2h18.8c.6 0 1.2.5 1.2 1.2s-.5 1.2-1.2 1.2h-20c-.7 0-1.2-.6-1.2-1.2V1.4z"/></g><g id="XMLID_1_"><path id="XMLID_4_" class="st1" d="M61.8 56.9c-.1-.1-.3-.3-.3-.5 0-.3.3-.6.6-.6.1 0 .3 0 .3.1 1 .6 1.9 1 3 1s1.9-.6 1.9-1.5-1.1-1.3-2.3-1.6c-1.5-.4-3.1-.9-3.1-2.6 0-1.6 1.3-2.7 3.2-2.7 1 0 2.1.3 3 .8.2.1.3.3.3.6s-.3.6-.6.6c-.1 0-.2 0-.3-.1-.8-.5-1.6-.7-2.4-.7-1.1 0-1.8.6-1.8 1.4 0 .9 1.2 1.2 2.4 1.6 1.4.4 3 1 3 2.7 0 1.8-1.5 2.8-3.3 2.8-1.3-.1-2.6-.5-3.6-1.3z"/><path id="XMLID_6_" class="st1" d="M72.2 53.3c0-2.7 2.1-4.9 4.9-4.9 2.8 0 4.8 2.2 4.8 4.8 0 2.6-2.1 4.9-4.9 4.9-2.8.1-4.8-2.1-4.8-4.8zm8.2 0c0-2-1.5-3.7-3.5-3.7s-3.4 1.6-3.4 3.6 1.5 3.6 3.4 3.6c2.1.1 3.5-1.5 3.5-3.5z"/><path id="XMLID_9_" class="st1" d="M86 45.4c0-.4.3-.7.7-.7.4 0 .7.3.7.7v11.9c0 .4-.3.7-.7.7-.4 0-.7-.3-.7-.7V45.4z"/><path id="XMLID_11_" class="st1" d="M100.1 57.3c0 .4-.3.7-.7.7-.4 0-.7-.3-.7-.7v-1c-.6 1-1.6 1.8-3.2 1.8-2.3 0-3.6-1.5-3.6-3.7v-5.2c0-.4.3-.7.7-.7.4 0 .7.3.7.7V54c0 1.7.9 2.8 2.6 2.8 1.6 0 2.8-1.2 2.8-2.9v-4.7c0-.4.3-.7.7-.7.4 0 .7.3.7.7v8.1z"/><path id="XMLID_13_" class="st1" d="M105.1 55.5v-5.6h-.8c-.3 0-.6-.3-.6-.6s.3-.6.6-.6h.8v-2.2c0-.4.3-.7.7-.7.4 0 .7.3.7.7v2.2h2.4c.3 0 .6.3.6.6s-.3.6-.6.6h-2.4v5.4c0 1.1.6 1.5 1.6 1.5.5 0 .7-.1.8-.1.3 0 .6.3.6.6s-.2.5-.4.5c-.4.2-.8.3-1.4.3-1.4 0-2.6-.7-2.6-2.6z"/><path id="XMLID_15_" class="st1" d="M113.4 45.7c0-.5.4-.7.8-.7.5 0 .8.3.8.7v.2c0 .4-.4.7-.8.7-.5 0-.8-.3-.8-.7v-.2zm.2 3.5c0-.4.3-.7.7-.7.4 0 .7.3.7.7v8.1c0 .4-.3.7-.7.7-.4 0-.7-.3-.7-.7v-8.1z"/><path id="XMLID_18_" class="st1" d="M119.1 53.3c0-2.7 2.1-4.9 4.9-4.9 2.8 0 4.8 2.2 4.8 4.8 0 2.6-2.1 4.9-4.9 4.9-2.8.1-4.8-2.1-4.8-4.8zm8.3 0c0-2-1.5-3.7-3.5-3.7s-3.4 1.6-3.4 3.6 1.5 3.6 3.4 3.6c2.1.1 3.5-1.5 3.5-3.5z"/><path id="XMLID_21_" class="st1" d="M132.8 49.2c0-.4.3-.7.7-.7.4 0 .7.3.7.7v1c.6-1 1.6-1.8 3.2-1.8 2.3 0 3.6 1.5 3.6 3.7v5.2c0 .4-.3.7-.7.7-.4 0-.7-.3-.7-.7v-4.8c0-1.7-.9-2.8-2.6-2.8-1.6 0-2.8 1.2-2.8 2.9v4.7c0 .4-.3.7-.7.7-.4 0-.7-.3-.7-.7v-8.1z"/><path id="XMLID_23_" class="st1" d="M144.9 56.9c-.1-.1-.3-.3-.3-.5 0-.3.3-.6.6-.6.1 0 .3 0 .3.1 1 .6 1.9 1 3 1s1.9-.6 1.9-1.5-1.1-1.3-2.3-1.6c-1.5-.4-3.1-.9-3.1-2.6 0-1.6 1.3-2.7 3.2-2.7 1 0 2.1.3 3 .8.2.1.3.3.3.6s-.3.6-.6.6c-.1 0-.2 0-.3-.1-.8-.5-1.6-.7-2.4-.7-1.1 0-1.8.6-1.8 1.4 0 .9 1.2 1.2 2.4 1.6 1.4.4 3 1 3 2.7 0 1.8-1.5 2.8-3.3 2.8-1.3-.1-2.6-.5-3.6-1.3z"/></g></svg>