<svg width="394" height="356" viewBox="0 0 394 356" xmlns="http://www.w3.org/2000/svg"><title>Fill 1</title><path d="M378.464 52.062c-65.966 36.618-91.645 76.896-86.123 140.976 27.49 7.35 49.48 27.49 49.48 64.08v38.474c0 32.955-27.51 60.418-60.47 60.418-32.983 0-60.495-27.463-60.495-60.418v-45.797c0-102.528 16.517-157.454 49.475-190.41C303.34 26.43 349.15.775 365.64.775c12.825 0 27.484 9.18 27.484 27.462 0 9.18-5.497 18.334-14.66 23.826m-219.856 0C92.64 88.68 66.96 128.958 72.46 193.038c27.485 7.35 49.5 27.49 49.5 64.08v38.474c0 32.955-27.487 60.418-60.47 60.418-33.01 0-60.495-27.463-60.495-60.418v-45.797c0-102.528 16.492-157.454 49.5-190.41C83.453 26.43 129.288.775 145.78.775c12.827 0 27.486 9.18 27.486 27.462 0 9.18-5.497 18.334-14.66 23.826" fill="#9B9B9B" fill-rule="evenodd" opacity=".104"/></svg>