<svg width="33" height="25" viewBox="0 0 33 25" xmlns="http://www.w3.org/2000/svg" xmlns:xlink="http://www.w3.org/1999/xlink"><title>Page 1</title><defs><path id="a" d="M0 .346h34.602V33H0"/></defs><g fill="none" fill-rule="evenodd"><g transform="rotate(-90 17.5 17.5)"><mask id="b" fill="#fff"><use xlink:href="#a"/></mask><path d="M20.53 32.885c-6.358-3.794-10.082-9.352-10.082-16.212 0-6.86 3.724-12.417 10.08-16.212.076-.035.264-.112.452-.112.414 0 .715.307.715.728 0 .307-.15.537-.414.69-5.68 3.68-8.874 8.624-8.874 14.91 0 6.285 3.197 11.23 8.877 14.908.264.153.415.383.415.69 0 .422-.3.728-.715.728a1.09 1.09 0 0 1-.45-.114" fill="#39A8DF" mask="url(#b)"/></g><path d="M23.73 1.64c0-.716.536-1.242 1.264-1.242h1.034c.73 0 1.266.526 1.266 1.24 0 .715-.537 1.242-1.266 1.242h-1.034c-.728 0-1.265-.527-1.265-1.24m-16.29 0c0-.716.535-1.242 1.264-1.242H9.74c.728 0 1.265.526 1.265 1.24 0 .715-.537 1.242-1.265 1.242H8.706c-.73 0-1.266-.527-1.266-1.24" fill="#43A6D8"/></g></svg>