<svg id="Layer_1" xmlns="http://www.w3.org/2000/svg" viewBox="0 0 350.6 338.1"><style>.st0{fill:#758fb5}.st1{fill:#32363b}</style><path class="st0" d="M102.2 162.8H19.9c-.2 0-.4.2-.4.4v155.2c0 .2.2.4.4.4h82.3c.2 0 .4-.2.4-.4V163.2c0-.2-.2-.4-.4-.4z"/><path class="st1" d="M345.6 201.9c0-9.7-4-19-10.8-25.6 4.9-6.2 7.6-13.8 7.6-21.8.1-9.3-3.6-18.1-10.4-25-7-7.1-16.7-11.2-26.6-11.2h-77.2l5-32.2c.6-4.1.9-8.2.9-12.4 0-31.9-21.5-68.9-49.3-68.9-8 0-15.8 2.8-22 8l-2.9 2.4 4 53c.2 2.3 0 4.5-.5 6.7s-1.4 4.2-2.6 6.2l-42.4 78.6-1.6 1.4c-1.1-7.2-7.2-12.7-14.7-12.7H19.9c-8.2 0-14.9 6.7-14.9 14.9v155.2c0 8.2 6.7 14.9 14.9 14.9h82.3c8.2 0 14.9-6.7 14.9-14.9v-7.8l.1.1c15.2 12.9 34.7 13 35.6 13h124c19-1.1 33.9-16.8 33.9-35.8 0-2.9-.3-5.7-1-8.4 12.9-5.5 21.7-18.3 21.7-32.9 0-4.8-1-9.5-2.8-13.9 10.3-6.6 17-18.1 17-30.9zm-243 116.4c0 .2-.2.4-.4.4H19.9c-.2 0-.4-.2-.4-.4V163.2c0-.2.2-.4.4-.4h82.3c.2 0 .4.2.4.4v155.1zm213.5-95.9l-9.8 3.1 6.2 8.2c2.8 3.8 4.3 8.2 4.3 12.8 0 10.5-7.5 19.3-17.9 21.1l-9.8 1.6 4.6 8.8c1.6 3.1 2.4 6.4 2.4 9.8 0 11.3-8.8 20.6-20 21.3H152.7c-.4 0-15.3-.3-26.2-9.6-2.4-2-4.5-3.4-6.8-4.5l-2.6-1.2v-114l12.9-11 43.4-80.5c1.9-3.2 3.3-6.6 4.2-10.1.9-3.6 1.2-7.4.9-11.2L175 21.9c3-1.7 6.4-2.6 9.9-2.6 18.7 0 34.8 29.9 34.8 54.5 0 3.4-.3 6.8-.8 10.2l-7.5 48.9h94.1c6 0 11.9 2.5 16.3 6.9 4 4.1 6.3 9.3 6.2 14.7 0 6.7-3.1 12.8-8.5 16.9l-8.8 6.6 9.6 5.4c6.7 3.8 10.9 10.9 10.9 18.6-.1 9.4-6.1 17.6-15.1 20.4z"/></svg>